<svg xmlns="http://www.w3.org/2000/svg" viewBox="0 0 1364 960"><path fill="#c2c2f5" d="M689.613 256.752c6.411 15.661 28.483 21.82 35.913 37.535 3.912 9.208-.612 17.419-3.032 25.534-3.058 14.978-5.61 31.959-.779 48.746 2.729 7.673 8.047 15.065 9.426 22.753-6.937-.955-15.145-3.254-23.08-6.734a27.029 27.029 0 0 1-.413-.574c-5.238-7.527-8.591-16.575-7.132-25.832 1.327-8.43 6.065-16.64 4.447-25.362-.885-4.773-3.727-8.835-6.392-12.775-2.748-4.071-5.152-8.15-6.102-13.026-1.592-8.135-.151-17.365-4.692-24.713-2.775-4.481-7.459-7.063-11.607-10.076-2.322-1.682-4.509-3.573-6.094-5.988-1.353-2.061-2.273-4.358-2.95-6.72-1.336-4.658-1.816-9.509-3.078-14.185-1.276-4.746-3.568-9.076-6.582-12.948-6.585-8.452-15.728-14.268-24.046-20.821-7.523-5.932-15.089-13.009-18.489-22.206a22.482 22.482 0 0 1-.328-.946c1.064-1.021 2.467-1.804 4.237-2.283 15.384-2.098 24.741 20.148 37.547 27.528 15.442 7.025 28.791 6.653 30.414 27.038.557 5.33.551 10.738 2.812 16.055z" class="colorC2C2F5 svgShape"/><path fill="#b0b0eb" d="M633.42 211.565c8.317 6.553 17.46 12.369 24.046 20.821 3.014 3.871 5.306 8.202 6.582 12.948 1.262 4.676 1.742 9.527 3.078 14.185.678 2.361 1.597 4.659 2.95 6.72 1.585 2.415 3.772 4.306 6.094 5.988 4.148 3.014 8.832 5.596 11.607 10.076 4.541 7.348 3.099 16.578 4.692 24.713.95 4.876 3.354 8.955 6.102 13.026 2.665 3.94 5.507 8.002 6.392 12.775 1.618 8.722-3.119 16.933-4.447 25.362-1.459 9.258 1.894 18.306 7.132 25.832.134.191.274.387.413.574a37.852 37.852 0 0 1-1.204-.539c-18.253-8.303-34.633-22.861-30.144-41.693 4.306-8.57 8.695-15.218-3.008-24.289-17.628-17.103-41.672-28.764-34.463-53.243 2.451-11.098 11.147-26.539.481-38.694-4.884-4.23-11.186-5.817-16.164-9.899-9.336-6.607-15.128-20.777-9.487-27.258.159-.195.336-.381.532-.557.101.317.212.633.328.946 3.398 9.196 10.965 16.274 18.488 22.206z" class="colorB0B0EB svgShape"/><path fill="#ffffff" d="M633.42 211.565c8.317 6.553 17.46 12.369 24.046 20.821 3.014 3.871 5.306 8.202 6.582 12.948 1.262 4.676 1.742 9.527 3.078 14.185.678 2.361 1.597 4.659 2.95 6.72 1.585 2.415 3.772 4.306 6.094 5.988 4.148 3.014 8.832 5.596 11.607 10.076 4.541 7.348 3.099 16.578 4.692 24.713.95 4.876 3.354 8.955 6.102 13.026 2.665 3.94 5.507 8.002 6.392 12.775 1.618 8.722-3.119 16.933-4.447 25.362-1.459 9.258 1.894 18.306 7.132 25.832.134.191.274.387.413.574a37.852 37.852 0 0 1-1.204-.539 50.056 50.056 0 0 1-3.381-5.716c-1.865-3.715-3.213-7.702-3.732-11.828-.551-4.39-.017-8.699 1.098-12.964 1.143-4.348 2.738-8.598 3.443-13.05.815-5.089-.051-9.806-2.566-14.314-2.464-4.41-5.813-8.282-7.951-12.887-1.795-3.877-2.383-8.1-2.735-12.318-.36-4.404-.459-8.891-1.638-13.176-1.428-5.207-4.746-8.814-9.084-11.889-4.199-2.972-8.692-5.661-11.355-10.225-2.357-4.042-3.215-8.731-4.068-13.267-.94-5.006-2.001-9.9-4.474-14.403-2.639-4.792-6.356-8.894-10.39-12.54-12.135-10.981-30.535-20.15-35.953-36.502.159-.195.336-.381.532-.557.101.317.212.633.328.946 3.399 9.199 10.966 16.277 18.489 22.209z" class="colorFFF svgShape"/><path fill="#c2c2f5" d="m1040.233 643.165-2.796 40.539c3.883-2.651 8.064-4.926 12.107-7.258 3.977-2.294 7.932-4.7 11.469-7.665 3.597-3.014 6.384-6.593 8.835-10.569 2.371-3.846 4.569-7.85 7.707-11.156 2.463-2.604 5.472-4.613 8.659-6.227 6.604-3.358 13.873-5.106 20.557-8.269 3.37-1.585 6.557-3.549 9.232-6.158 3.23-3.142 5.62-7.018 7.86-10.892 2.238-3.867 4.359-7.827 7.085-11.382a39.84 39.84 0 0 1 8.174-7.949c6.176-4.516 13.471-7.343 20.952-8.771 18.314-3.509 36.728 1.779 53.935 7.76 1.016.355 2.032.71 3.053 1.076 1.717-10.505-13.323-19.271-22.89-21.362-6.544-1.428-13.349.622-20.028.208-33.853-2.073-55.557-14.31-72.644 24.154-1.909 4.306-3.582 8.914-6.984 12.172-15.337 12.681-52.705 2.547-54.283 31.749z" class="colorC2C2F5 svgShape"/><path fill="#b0b0eb" d="M1063.956 726.676c27.18 10.832 55.825-12.175 38.952-43.521-11.906-16.25 4.399-25.654 18.835-28.809 7.164-1.574 15.865-1.672 19.831-7.847 7.001-14.104-11.127-33.03 19.804-39.408 17.454-3.608 49.233 12.625 55.435-9.706.028-.104.058-.217.078-.324-16.335-5.79-33.464-11.392-50.971-9.662-7.687.76-15.322 2.88-22.063 6.707-3.293 1.866-6.356 4.155-9.032 6.842-2.976 2.994-5.311 6.485-7.448 10.115-2.256 3.843-4.328 7.811-6.952 11.429-2.307 3.185-5.062 5.949-8.367 8.101-5.972 3.885-12.919 5.816-19.511 8.363-3.35 1.302-6.679 2.77-9.691 4.761-3.44 2.289-6.157 5.268-8.444 8.697-2.495 3.75-4.547 7.787-7.333 11.339-2.684 3.438-6.036 6.275-9.618 8.742-6.454 4.463-13.66 7.759-20.091 12.256 0-.001-3.989 29.739 26.586 41.925z" class="colorB0B0EB svgShape"/><path fill="#035875" d="m1037.437 683.704-.068 1.046c6.432-4.497 13.637-7.793 20.091-12.256 3.582-2.467 6.933-5.304 9.618-8.742 2.786-3.552 4.837-7.589 7.333-11.339 2.286-3.429 5.003-6.408 8.444-8.697 3.012-1.991 6.341-3.458 9.691-4.761 6.592-2.546 13.539-4.477 19.511-8.363 3.305-2.152 6.061-4.916 8.367-8.101 2.624-3.617 4.696-7.586 6.952-11.429 2.137-3.63 4.472-7.121 7.448-10.115 2.676-2.687 5.74-4.976 9.032-6.842 6.741-3.827 14.377-5.947 22.063-6.707 17.508-1.73 34.636 3.872 50.971 9.662.069-.274.128-.543.172-.817-1.021-.366-2.037-.721-3.053-1.076-17.207-5.981-35.62-11.269-53.935-7.76-7.481 1.428-14.776 4.255-20.952 8.771a39.866 39.866 0 0 0-8.174 7.949c-2.726 3.556-4.847 7.516-7.085 11.382-2.24 3.874-4.63 7.749-7.86 10.892-2.675 2.609-5.862 4.573-9.232 6.158-6.684 3.163-13.953 4.911-20.557 8.269-3.187 1.614-6.196 3.623-8.659 6.227-3.138 3.306-5.336 7.31-7.707 11.156-2.451 3.976-5.238 7.555-8.835 10.569-3.537 2.965-7.492 5.372-11.469 7.665-4.043 2.333-8.224 4.607-12.107 7.259z" class="color035875 svgShape"/><path fill="#ffffff" d="m1037.437 683.704-.068 1.046c6.432-4.497 13.637-7.793 20.091-12.256 3.582-2.467 6.933-5.304 9.618-8.742 2.786-3.552 4.837-7.589 7.333-11.339 2.286-3.429 5.003-6.408 8.444-8.697 3.012-1.991 6.341-3.458 9.691-4.761 6.592-2.546 13.539-4.477 19.511-8.363 3.305-2.152 6.061-4.916 8.367-8.101 2.624-3.617 4.696-7.586 6.952-11.429 2.137-3.63 4.472-7.121 7.448-10.115 2.676-2.687 5.74-4.976 9.032-6.842 6.741-3.827 14.377-5.947 22.063-6.707 17.508-1.73 34.636 3.872 50.971 9.662.069-.274.128-.543.172-.817-1.021-.366-2.037-.721-3.053-1.076-17.207-5.981-35.62-11.269-53.935-7.76-7.481 1.428-14.776 4.255-20.952 8.771a39.866 39.866 0 0 0-8.174 7.949c-2.726 3.556-4.847 7.516-7.085 11.382-2.24 3.874-4.63 7.749-7.86 10.892-2.675 2.609-5.862 4.573-9.232 6.158-6.684 3.163-13.953 4.911-20.557 8.269-3.187 1.614-6.196 3.623-8.659 6.227-3.138 3.306-5.336 7.31-7.707 11.156-2.451 3.976-5.238 7.555-8.835 10.569-3.537 2.965-7.492 5.372-11.469 7.665-4.043 2.333-8.224 4.607-12.107 7.259z" class="colorFFF svgShape"/><path fill="#c2c2f5" d="m342.685 558.555 2.796 40.539c-3.883-2.651-8.064-4.926-12.107-7.258-3.977-2.294-7.933-4.7-11.469-7.665-3.597-3.014-6.384-6.593-8.835-10.569-2.371-3.846-4.569-7.85-7.707-11.156-2.463-2.604-5.472-4.613-8.659-6.227-6.604-3.358-13.873-5.106-20.557-8.269-3.37-1.585-6.557-3.549-9.232-6.158-3.23-3.142-5.62-7.018-7.86-10.892-2.238-3.867-4.359-7.827-7.085-11.382a39.84 39.84 0 0 0-8.174-7.949c-6.175-4.516-13.47-7.343-20.952-8.771-18.314-3.509-36.728 1.779-53.935 7.76-1.016.355-2.032.71-3.053 1.076-1.717-10.505 13.323-19.271 22.89-21.362 6.544-1.428 13.349.622 20.028.208 33.853-2.073 55.557-14.31 72.644 24.154 1.909 4.306 3.582 8.914 6.983 12.172 15.338 12.681 52.706 2.547 54.284 31.749z" class="colorC2C2F5 svgShape"/><path fill="#b0b0eb" d="M318.962 642.066c-27.18 10.832-55.825-12.175-38.952-43.521 11.906-16.25-4.399-25.654-18.835-28.809-7.164-1.574-15.865-1.672-19.831-7.847-7.001-14.104 11.127-33.03-19.804-39.408-17.454-3.608-49.233 12.625-55.435-9.706a4.367 4.367 0 0 1-.078-.324c16.335-5.79 33.464-11.392 50.971-9.662 7.687.76 15.322 2.88 22.064 6.707 3.293 1.866 6.356 4.155 9.032 6.842 2.976 2.994 5.311 6.485 7.448 10.115 2.256 3.843 4.328 7.811 6.952 11.429 2.306 3.185 5.062 5.949 8.367 8.101 5.972 3.885 12.919 5.816 19.511 8.363 3.35 1.302 6.679 2.77 9.691 4.761 3.44 2.289 6.158 5.268 8.444 8.697 2.495 3.75 4.547 7.787 7.333 11.339 2.684 3.438 6.036 6.275 9.618 8.742 6.454 4.463 13.66 7.759 20.091 12.256-.001-.001 3.988 29.739-26.587 41.925z" class="colorB0B0EB svgShape"/><path fill="#035875" d="m345.481 599.093.068 1.046c-6.431-4.497-13.637-7.793-20.091-12.256-3.582-2.467-6.933-5.304-9.618-8.742-2.786-3.552-4.837-7.589-7.333-11.339-2.286-3.429-5.003-6.408-8.444-8.697-3.012-1.991-6.341-3.458-9.691-4.761-6.592-2.546-13.539-4.477-19.511-8.363-3.305-2.152-6.061-4.916-8.367-8.101-2.624-3.617-4.696-7.586-6.952-11.429-2.137-3.63-4.472-7.121-7.448-10.115-2.676-2.687-5.74-4.976-9.032-6.842-6.741-3.827-14.377-5.947-22.064-6.707-17.508-1.73-34.636 3.873-50.971 9.662a9.502 9.502 0 0 1-.172-.817c1.021-.366 2.038-.721 3.053-1.076 17.207-5.981 35.62-11.269 53.935-7.76 7.481 1.428 14.776 4.255 20.952 8.771a39.866 39.866 0 0 1 8.174 7.949c2.726 3.556 4.847 7.516 7.085 11.382 2.24 3.874 4.63 7.749 7.86 10.892 2.675 2.609 5.862 4.573 9.232 6.158 6.685 3.163 13.953 4.911 20.557 8.269 3.187 1.614 6.196 3.623 8.659 6.227 3.138 3.306 5.336 7.31 7.707 11.156 2.451 3.976 5.238 7.555 8.835 10.569 3.537 2.965 7.492 5.372 11.469 7.665 4.043 2.333 8.225 4.608 12.108 7.259z" class="color035875 svgShape"/><path fill="#ffffff" d="m345.481 599.093.068 1.046c-6.431-4.497-13.637-7.793-20.091-12.256-3.582-2.467-6.933-5.304-9.618-8.742-2.786-3.552-4.837-7.589-7.333-11.339-2.286-3.429-5.003-6.408-8.444-8.697-3.012-1.991-6.341-3.458-9.691-4.761-6.592-2.546-13.539-4.477-19.511-8.363-3.305-2.152-6.061-4.916-8.367-8.101-2.624-3.617-4.696-7.586-6.952-11.429-2.137-3.63-4.472-7.121-7.448-10.115-2.676-2.687-5.74-4.976-9.032-6.842-6.741-3.827-14.377-5.947-22.064-6.707-17.508-1.73-34.636 3.873-50.971 9.662a9.502 9.502 0 0 1-.172-.817c1.021-.366 2.038-.721 3.053-1.076 17.207-5.981 35.62-11.269 53.935-7.76 7.481 1.428 14.776 4.255 20.952 8.771a39.866 39.866 0 0 1 8.174 7.949c2.726 3.556 4.847 7.516 7.085 11.382 2.24 3.874 4.63 7.749 7.86 10.892 2.675 2.609 5.862 4.573 9.232 6.158 6.685 3.163 13.953 4.911 20.557 8.269 3.187 1.614 6.196 3.623 8.659 6.227 3.138 3.306 5.336 7.31 7.707 11.156 2.451 3.976 5.238 7.555 8.835 10.569 3.537 2.965 7.492 5.372 11.469 7.665 4.043 2.333 8.225 4.608 12.108 7.259z" class="colorFFF svgShape"/><path fill="#d4d4ff" d="m442.605 258.488-5.12 1.45a69.525 69.525 0 0 0-12.434-16.631l3.042-5.447c4.546-8.138 1.633-18.421-6.506-22.966-8.138-4.545-18.42-1.633-22.966 6.506l-2.598 4.652a69.035 69.035 0 0 0-20.542-2.974h-.007l-1.7-6.003c-2.541-8.969-11.871-14.18-20.84-11.639s-14.18 11.871-11.64 20.84l1.45 5.12a69.52 69.52 0 0 0-16.631 12.433l-5.447-3.042c-8.138-4.546-18.421-1.633-22.966 6.506-4.546 8.138-1.633 18.421 6.506 22.966l4.65 2.598a69.055 69.055 0 0 0-2.975 20.545v.005l-6 1.7c-8.969 2.541-14.18 11.871-11.639 20.84s11.871 14.18 20.84 11.639l5.117-1.449a69.499 69.499 0 0 0 12.435 16.634l-3.04 5.443c-4.546 8.139-1.633 18.421 6.506 22.966 8.138 4.546 18.421 1.633 22.966-6.506l2.589-4.635.005.001a70.08 70.08 0 0 0 20.558 2.972l1.696 5.986c2.541 8.969 11.871 14.18 20.84 11.64s14.18-11.871 11.639-20.84l-1.449-5.116a69.523 69.523 0 0 0 16.633-12.436l5.444 3.04c8.138 4.545 18.421 1.633 22.966-6.506 4.545-8.138 1.633-18.421-6.506-22.966l-4.637-2.59v-.001a70.092 70.092 0 0 0 2.972-20.56l5.989-1.697c8.969-2.541 14.18-11.871 11.639-20.84-2.539-8.967-11.87-14.178-20.839-11.638zm-18.407 20.855c7.563 26.698-7.959 54.488-34.657 62.051-26.698 7.563-54.489-7.958-62.051-34.656-7.567-26.713 7.959-54.489 34.656-62.052 26.699-7.563 54.485 7.944 62.052 34.657z" class="colorD4D4FF svgShape"/><path fill="#d4d4ff" d="M345.284 301.697c4.781 16.878 22.339 26.685 39.217 21.904 16.878-4.781 26.7-22.344 21.919-39.222-4.781-16.878-22.359-26.696-39.237-21.914-16.878 4.781-26.68 22.354-21.899 39.232zM311.406 385.03l-3.377.956a45.835 45.835 0 0 0-8.201-10.968l2.006-3.592c2.998-5.368 1.077-12.149-4.291-15.147-5.367-2.998-12.149-1.077-15.147 4.291l-1.714 3.068a45.498 45.498 0 0 0-13.548-1.961h-.004l-1.121-3.959c-1.676-5.915-7.829-9.352-13.744-7.676-5.915 1.676-9.352 7.829-7.677 13.744l.957 3.377a45.857 45.857 0 0 0-10.968 8.2l-3.592-2.006c-5.368-2.998-12.149-1.077-15.147 4.291-2.998 5.368-1.077 12.149 4.291 15.147l3.067 1.713a45.54 45.54 0 0 0-1.962 13.55v.003l-3.957 1.121c-5.915 1.676-9.352 7.829-7.676 13.744 1.676 5.915 7.829 9.352 13.744 7.676l3.375-.956a45.826 45.826 0 0 0 8.201 10.97l-2.005 3.59c-2.998 5.368-1.077 12.149 4.291 15.147 5.368 2.998 12.149 1.077 15.147-4.291l1.707-3.057.003.001a46.227 46.227 0 0 0 13.558 1.96l1.118 3.948c1.676 5.915 7.829 9.352 13.744 7.677 5.915-1.676 9.352-7.829 7.676-13.745l-.956-3.374a45.83 45.83 0 0 0 10.97-8.202l3.59 2.005c5.367 2.998 12.149 1.077 15.147-4.291 2.998-5.367 1.077-12.149-4.291-15.147l-3.058-1.708v-.001a46.236 46.236 0 0 0 1.96-13.56l3.95-1.119c5.915-1.676 9.352-7.829 7.676-13.744-1.673-5.914-7.827-9.351-13.742-7.675zm-12.14 13.754c4.988 17.608-5.249 35.937-22.857 40.924s-35.937-5.249-40.925-22.857c-4.991-17.618 5.249-35.937 22.857-40.925 17.608-4.987 35.934 5.24 40.925 22.858z" class="colorD4D4FF svgShape"/><path fill="#d4d4ff" d="M247.22 413.527c3.153 11.132 14.734 17.599 25.865 14.446 11.132-3.153 17.609-14.737 14.456-25.868-3.153-11.132-14.746-17.607-25.878-14.453s-17.597 14.744-14.443 25.875zM952.056 555.211H913.7c-12.704 0-23.016 46.449-23.316 104.26h-7.794v34.324h99.753v-34.324h-6.97c-.3-57.811-10.612-104.26-23.317-104.26zM993.511 295.188h-39.702V184.28H974.438v-12.29H890.4v12.29h20.345v2.14h.002v108.768h-79.071v36.494h79.071v35.108h-.002v4h.002v69.748h-.002v3.999h.002V477.413h-.002v3.999h.002V551.153h-.002v4.007h43.065V331.682h78.971v-36.494H993.511zm-122.567 32.888h-34.522v-29.282h34.522v29.282zm39.279 0h-34.531v-29.282h34.531v29.282zm36.707-141.657-14.505 13.331-13.311-13.331h27.816zM917.681 514.28l-1.478-1.478 16.102-14.803 16.221 16.24-.042.041h-30.803zm26.444 4.007-11.701 10.755-10.742-10.755h22.443zm-22.727-36.874h23.044l-12.013 11.046-11.031-11.046zm-3.998-4-1.196-1.196 16.102-14.81 15.986 16.007H917.4zm3.709-32.875h23.644l-12.329 11.329-11.315-11.329zm-3.993-3.999-.912-.912 16.102-14.803L948 440.539h-30.884zm3.71-32.875h24.24l-12.637 11.613-11.603-11.613zm-3.994-4-.628-.628 16.102-14.803 15.411 15.432h-30.885zm3.71-32.874h24.834l-12.951 11.901-11.883-11.901zm-4.001-4-.337-.339 16.109-14.803 15.122 15.142h-30.894zm3.717-32.874h25.429l-13.258 12.185-12.171-12.185zm-2.113-5.84 14.161-13.018 13.002 13.018h-27.163zm3.572-29.282h22.374l-11.666 10.724-10.708-10.724zm-5.257-5.752 15.853-14.569 14.547 14.569h-30.4zm3.225-32.875h26.623l-13.879 12.759-12.744-12.759zm-2.916-3.999 15.536-14.285 14.273 14.285h-29.809zm2.625-32.874h27.223l-14.194 13.049-13.029-13.049zm-2.313-4.001 15.224-14.002 13.989 14.002h-29.213zm-1.762-31.008 14.161 14.175-14.161 13.014v-27.189zm0 36.59 14.161 14.175-14.161 13.015v-27.19zm0 36.584 14.161 14.175-14.161 13.022v-27.197zm0 37.335h.743l13.418 13.431-14.161 13.014v-26.445zm0 35.84 14.161 14.175-14.161 13.022v-27.197zm0 36.592 14.161 14.175-14.161 13.014v-27.189zm0 36.59 14.161 14.175-14.161 13.015v-27.19zm0 36.722h.137l14.024 14.036-14.161 13.015v-27.051zm0 36.875h.421l13.74 13.754-14.161 13.014v-26.768zm0 36.874h.712l13.449 13.463-14.161 13.015v-26.478zm0 32.867v-.946l16.986-15.626 16.551 16.572h-33.537zm33.917-5.284-13.98-13.996 13.98-12.848v26.844zm0-36.585-13.98-13.995 13.98-12.855v26.85zm0-36.59-13.982-13.996h.002l13.98-12.848v26.844zm0-36.592-13.982-13.995 13.982-12.848v26.843zm0-36.583-13.98-13.996 13.98-12.855v26.851zm0-36.591-13.982-13.996h.002l13.98-12.848v26.844zm0-36.585-13.98-13.995 13.98-12.855v26.85zm0-36.59-13.98-13.996 13.98-12.848v26.844zm0-36.585-13.98-13.995 13.98-12.855v26.85zm0-36.59-13.98-13.995 13.98-12.85v26.845zm39.525 111.497h-34.519v-29.282h34.519v29.282zm39.281 0h-34.531v-29.282h34.531v29.282z" class="colorD4D4FF svgShape"/><path fill="#d4d4ff" d="m1094.921 159.759-4.428-16.466-.361-1.32-1.599-.008-8.331-.043V130.84h-20.123L936.525 41.424a6.249 6.249 0 0 0-1.473-5.741 6.244 6.244 0 0 0-4.633-2.044 6.223 6.223 0 0 0-3.088.815c-.084.042-.165.09-.242.138-.144.09-.284.179-.414.283a.304.304 0 0 0-.049.042c-.123.09-.242.193-.358.29-.014.007-.021.021-.035.035-.077.062-.144.132-.214.2a6.257 6.257 0 0 0-1.885 4.483c0 .539.068 1.064.193 1.562L738.385 142.12l-.179-.097-.316.159h-1.003l-3.819.007h-.179l-25.918.048h-.009l-.638.002-4.406.006h-.607v.007l-1.287.628-1.229.609-2.052 1.015-.717.353h-.007l-13.451 6.652-2.832 1.395-16.551 8.179h-.007l-.373.187-3.626 1.788v.47l4.005-.007h.712l30.912-.055h.007l1.238-.007 3.467-.007h.007l.449.248.305-.15.198-.098 4.477-.007 12.462-.023v2.8h3.668v2.186h8.965v80.004c-1.69.213-3 1.64-3 3.386 0 .865.33 1.645.859 2.249l-.784.328-.484.201-.544.227-.028 1.293-.028 1.078-.063 2.514-.021 1.078-.061 2.508v.132l-.028.946-.028 1.32h3.337l.096 3.736c.168-.041.421-.097.74-.097.228 0 .491.035.766.131.126.042.249.097.375.159.821.428 1.527 1.313 1.373 2.197-.172.995-1.32 1.416-2.015 1.581-.298.07-.519.09-.554.097a3.404 3.404 0 0 1-.656.007c-.042 0-.084 0-.123-.007a3.468 3.468 0 0 1-1.133-.311 2.57 2.57 0 0 1-.982-.76c-.966-1.23-.344-2.971-.675-3.039-.277-.056-.926 1.043-.933 2.252-.014 1.61 1.271 2.639 1.829 3.025L671.22 384.314h1.294l55.787-109.122a5.42 5.42 0 0 0 1.983.414l50.344 108.708h1.257l-50.414-108.867c.242-.069.491-.165.74-.29 1.878-.953 3.232-3.42 2.32-5.429-.524-1.154-1.603-1.727-2.411-2.004a5.124 5.124 0 0 0-1.022-.249v-1.802h3.66l.007-.428.028-2.556v-.214l.014-.891.021-1.692v-.007l.014-.856.014-1.105.021-1.589.012-1.104v-.207l-.144-.07-.787-.372-.966-.46a3.414 3.414 0 0 0 .917-2.319 3.417 3.417 0 0 0-3-3.386v-80.004h9.518v-2.186h2.288v-2.849l25.269-.045h.002l-.002.001.558-.001h1.257l2.895-.007h.003l.456.243.263-.128.24-.115h.144l.426-.001 3.907-.007-.012-.006h.009l26.444-.048h.007l-.007.002 1.676-.002h.423l.822-.002.796-.002.989-.001.463.243.496-.246h.435l4.033-.006h.007l26.451-.049h.007l1.445-.005 1.499-.002h1.429l.13-.002.195-.001.463.244.496-.245 4.477-.008-.002-.001h.002l26.442-.048h.002l2.672-.005 1.52-.002h.514l.461.243.498-.247 1.008-.001 3.467-.007-.005-.002h.005l16.302-.03c-.605 2.011-1.005 3.35-1.096 3.646-.007.042-.014.062-.014.062l.258.464c-.23.264-.382.599-.382.976v2.142c0 .83.673 1.502 1.501 1.502h61.171c.626 0 1.159-.383 1.384-.926h.116v-2.718c0-.675-.451-1.224-1.063-1.414-.014-.03-.028-.059-.04-.088-.566-1.252-1.131-2.502-1.694-3.753l23.181-.043h.002l-.002.001 3.53-.007.561-.001h.617l.461.243.496-.245 1.867-.003 2.611-.005-.007-.003h.005l30.263-.055h.002v.002l.891-.001 1.671-.003v.059l3.842.02v20.154h2.581v2.755c0 .401.326.727.728.727h1.776a.727.727 0 0 0 .728-.727v-2.755h2.369v2.755c0 .401.326.727.726.727h1.776a.728.728 0 0 0 .728-.727v-2.755h2.369v2.755c0 .401.326.727.728.727h1.776c.4 0 .726-.326.726-.727v-2.755h28.867v-8.323h-.002V163.17l3.214.016v4.304h12.364v-4.24h.079l-.936-3.491zm-426.445 1.504 13.975-6.915 12.862 6.859-26.837.056zm16.8-8.31 10.749-5.312.021 11.052-10.77-5.74zm20.842-8.463h.007l26.767-.049v.208l-13.737 6.79-.003.001-13.03-6.949h-.005l-.002-.001h.003zm-6.016 16.358-.002.001-.042-.014h-.007l-.021-15.17 1.473-.733 14.817 7.903-16.218 8.013zm4.953.346 9.788-4.836 4.187-2.072h.002l.002.001 12.862 6.859-26.841.048zm16.816-8.305 11.024-5.456h.005l.019 11.35-11.048-5.894zm207.6-96.57.733-10.107c.068.007.144.007.214.007.337 0 .677-.028 1.001-.083l1.071 10.183v.001h-3.018v-.001zm-.179 2.541v-.001h3.467v.001l1.375 12.992h-5.797l.955-12.992zm-1.141 15.53h6.258l1.369 12.992h-8.567l.94-12.992zm-1.133 15.541h9.029l1.368 12.993h-11.343l.946-12.993zm-190.095 70.738-.028-15.213 1.194-.586 14.822 7.902-15.988 7.897zm5.781-16.249h.014l27.049-.048v.07l-14.021 6.928-13.028-6.943-.014-.007zm-1.061 16.705 13.979-6.908 12.86 6.859h.005l-26.844.049zm16.814-8.309 11.315-5.59.021 11.638-11.336-6.048zm15.339 7.642-.028-15.206.912-.452 14.817 7.902-15.701 7.756zm5.494-16.106h.005l27.189-.049h.014l-.007.005-14.163 6.999-13.028-6.949-.01-.006zm-1.052 16.704 13.977-6.907 12.855 6.858-26.832.049zm16.807-8.303 11.601-5.734.021 11.934-11.622-6.2zm15.625 7.498-.028-15.206.628-.311 14.817 7.901-15.417 7.616zm5.217-15.962h.005l27.187-.048-14.161 6.998-13.028-6.948-.003-.002zm25.777 16.657-26.837.048h-.014l.005-.001 13.982-6.909 12.867 6.861.005.002h-.008zm-10.035-8.263 11.892-5.872.021 12.227-11.913-6.355zm15.915 7.362-.028-15.211.338-.166 14.817 7.903-15.127 7.474zm4.925-15.825h.007l27.196-.048h.005l-.005.001-14.163 6.999-13.032-6.949-.008-.003zm-1.059 16.705h-.002l13.982-6.909 12.862 6.861-26.842.048zm16.809-8.305 12.174-6.016.023 12.52-12.197-6.504zm16.2 7.215-.028-15.206.053-.028 14.82 7.901-14.845 7.333zm21.219-1.588v.021c-.275.908-.526 1.755-.766 2.556l-16.874.031 13.975-6.907 4.273 2.277c-.205.682-.415 1.384-.608 2.022zm1.359-4.527-2.195-1.171 2.986-1.474c-.267.896-.53 1.778-.791 2.645zm1.771-5.912-6.677 3.298-13.023-6.947 20.803-.043c-.365 1.22-.735 2.456-1.103 3.692zm15.472-75.957c-.033.406-.058.818-.088 1.228-.03.436-.068.87-.096 1.31-.326 4.331-.635 8.662-.954 12.993-.03.426-.06.852-.088 1.278-.033.425-.063.848-.093 1.272h.002c-.316 4.331-.635 8.662-.954 12.993-.03.406-.06.818-.088 1.228l-.098 1.309c-.316 4.331-.635 8.662-.938 12.994h-.003l-.126 1.726c-1.096.732-2.143 1.599-2.492 2.446a11.9 11.9 0 0 0-1.576.34c-1.631.431-4.063 1.411-4.866 3.562-.829 2.205.598 2.17 1.661 1.9.403-.085.768-.215.982-.3-.037.168-.195.733-.461 1.627h.179c-.084.28-.172.584-.27.924a6033.55 6033.55 0 0 1-3.333 11.19l-20.63.037h-.011l.005-.002-5.05.009-.291-.156-.314.156h-.005l-3.861.007h-.959l-26.106.049h-.007l-2.597.007-2.451.005-.291-.156-.317.157-1.25.002-2.895.005-.282.001h-.398l-26.097.048h-.007l-5.043.007h-.01l-.293-.154-.316.157-1.894.003h-.512l-.449.002-.989.001-.584.001-.386.001.002.001h-.005l-26.104.049H780.134l.005-.002-4.468.008h-.582l-.291-.156-.314.156h-.004l-.184.002-.533.001-2.32.003h-1.178l-.179.002-.323.001h-.102l.004.003-26.118.049h-.007l.007-.007-2.509.007 183.748-99.453a6.151 6.151 0 0 0 1.438 1.886c-.284 3.903-.572 7.798-.856 11.709v.001h-.002l-.063.869c-.04.556-.082 1.112-.121 1.671a3780.43 3780.43 0 0 0-.94 12.992h-.002zm5.089 46.604-4.384-.06.94-12.931h11.799l1.368 12.992h-9.723zm29.688 32.732-.873-2.62-.005-3.821 14.298 7.623-10.538 5.208a8564.58 8564.58 0 0 1-2.882-6.39zm3.219-7.167h.014l27.182-.049h.003l-.005.002-14.161 6.998-13.028-6.948-.005-.003zm25.778 16.656-24.694.044c-.133-.289-.261-.577-.391-.866l12.22-6.039 12.867 6.861h-.002zm-10.035-8.26 13.037-6.438.023 13.403-13.06-6.965zm17.061 6.798-.028-14.383 14.017 7.47-13.989 6.913zm3.795-15.256 27.173-.049h.007l-14.156 6.996-13.024-6.947zm-1.072 16.697 13.977-6.906 12.858 6.858-26.835.048zm16.807-8.306 13.319-6.579h.002l.023 13.697-13.344-7.118zm19.755 7.098-1.103-.006.084-16.443 1.019.006v16.443zm0-28.607v10.846l-1.012-.006v-.021l-1.431-.008v-.007h-1.293l-2.707.007-28.22.055h-.004l.007-.002-4.657.008-.386.001-.298-.156-.316.156h-.009l-1.34.003-2.05.003h-1.424l-26.097.049h-.007l-2.083.006-2.965.005-.291-.156-.319.157-.807.002h-.721c-1.294-3.892-2.59-7.783-3.879-11.678l-.047-.677 1.443-.019.014-.048.179-.002s1.58-4.829-.084-6.066c-1.322-.97-7.433-.744-9.9-.61-.061-.562-.121-1.125-.179-1.687-.04-.408-.086-.815-.13-1.222-.047-.44-.091-.883-.137-1.32h-.002c-.449-4.332-.912-8.663-1.366-12.994-.072-.723-.151-1.441-.23-2.153-.014-.128-.025-.257-.039-.384-.449-4.331-.912-8.662-1.369-12.993-.084-.849-.179-1.699-.27-2.549-.463-4.33-.912-8.661-1.373-12.992h.002c-.093-.849-.174-1.7-.277-2.539h-.002c-.449-4.331-.912-8.661-1.368-12.992-.04-.419-.088-.835-.133-1.253-.047-.429-.088-.861-.135-1.287h-.002v-.001c-.428-4.145-.863-8.284-1.305-12.427a9.81 9.81 0 0 0 .305-.4l99.19 87.349h-.476zm17.012 0v-3.43a.727.727 0 0 0-.726-.728h-1.776a.727.727 0 0 0-.728.728v3.43h-2.369v-3.43a.727.727 0 0 0-.728-.728h-1.776c-.4 0-.726.326-.726.728v3.43h-2.369v-3.43a.727.727 0 0 0-.728-.728h-1.776a.727.727 0 0 0-.728.728v3.43h-.135l-97.119-85.534 118.194 85.534h-6.51zm28.864 28.843V143.24l8.692.044 4.436 16.466-13.128-.067zM799.129 384.315H648.208a4.004 4.004 0 0 0 0 8.007h150.921a4.002 4.002 0 0 0 4.003-4.004 4 4 0 0 0-4.003-4.003z" class="colorD4D4FF svgShape"/><path fill="#ffffff" d="M372.776 286.461h681.695v453.075H372.776z" class="colorFFF svgShape"/><path fill="#b0b0eb" d="M655.785 750.385h118.086v103.882H655.785z" class="colorB0B0EB svgShape"/><path fill="#9797db" d="M773.871 750.385v103.882h-15.944c1.13-10.385 2.4-41.649-19.186-65.613-19.998-22.166-62.959-24.716-82.956-24.528v-13.741h118.086z" class="color9797DB svgShape"/><path fill="#b0b0eb" d="M833.353 854.267h-237.05c-19.553 0-35.402 15.85-35.402 35.403h307.856c-.001-19.552-15.852-35.403-35.404-35.403z" class="colorB0B0EB svgShape"/><path fill="#7371e6" d="M1056.874 286.461H372.776c-5.625 0-10.19 4.565-10.19 10.19v449.278c0 5.625 4.565 10.189 10.19 10.189h684.099c5.633 0 10.19-4.564 10.19-10.189V296.651c0-5.625-4.558-10.19-10.191-10.19zm-6.796 420.402c0 6-4.847 10.865-10.831 10.865H386.291c-5.984 0-10.84-4.865-10.84-10.865V311.457c0-6.001 4.856-10.866 10.84-10.866h652.957c5.984 0 10.831 4.865 10.831 10.866v395.406z" class="color7371E6 svgShape"/><path fill="#9797db" d="M833.353 854.267h-237.05c-11.003 0-20.833 5.02-27.326 12.892a35.3 35.3 0 0 1 13.961-2.867h237.049c16.069 0 29.616 10.713 33.941 25.378h14.829c-.001-19.552-15.852-35.403-35.404-35.403z" class="color9797DB svgShape"/><path fill="#d5d8ed" d="M929.153 592.38h-73.84a1.41 1.41 0 0 1-1.41-1.41v-1.364c0-.779.631-1.41 1.41-1.41h73.841c.779 0 1.41.631 1.41 1.41v1.364a1.412 1.412 0 0 1-1.411 1.41zM930.169 607.923h-44.314a1.41 1.41 0 0 1-1.41-1.41v-1.364c0-.779.631-1.41 1.41-1.41h44.313c.779 0 1.41.631 1.41 1.41v1.364c.002.778-.63 1.41-1.409 1.41zM875.34 607.923h-14.21a1.41 1.41 0 0 1-1.41-1.41v-1.364c0-.779.631-1.41 1.41-1.41h14.21c.779 0 1.41.631 1.41 1.41v1.364a1.41 1.41 0 0 1-1.41 1.41zM779.306 657.118h-73.841a1.41 1.41 0 0 1-1.41-1.41v-1.364c0-.779.631-1.41 1.41-1.41h73.841c.779 0 1.41.631 1.41 1.41v1.364a1.41 1.41 0 0 1-1.41 1.41zM780.323 672.661H736.01a1.41 1.41 0 0 1-1.41-1.41v-1.364c0-.779.631-1.41 1.41-1.41h44.313c.779 0 1.41.631 1.41 1.41v1.364a1.41 1.41 0 0 1-1.41 1.41zM725.494 672.661h-14.21a1.41 1.41 0 0 1-1.41-1.41v-1.364c0-.779.631-1.41 1.41-1.41h14.21c.779 0 1.41.631 1.41 1.41v1.364a1.41 1.41 0 0 1-1.41 1.41zM505.122 365.111h-73.84a1.41 1.41 0 0 1-1.41-1.41v-1.364c0-.779.631-1.41 1.41-1.41h73.841c.779 0 1.41.631 1.41 1.41v1.364a1.411 1.411 0 0 1-1.411 1.41zM506.139 380.654h-44.314a1.41 1.41 0 0 1-1.41-1.41v-1.364c0-.779.631-1.41 1.41-1.41h44.313c.779 0 1.41.631 1.41 1.41v1.364c.001.779-.63 1.41-1.409 1.41zM451.309 380.654h-14.21a1.41 1.41 0 0 1-1.41-1.41v-1.364c0-.779.631-1.41 1.41-1.41h14.21c.779 0 1.41.631 1.41 1.41v1.364a1.409 1.409 0 0 1-1.41 1.41z" class="colorD5D8ED svgShape"/><path fill="#807eff" d="M310.273 423.162h327.102c10.11 0 18.307 8.83 18.307 19.721v222.431c0 10.892-8.196 19.721-18.307 19.721H310.273c-10.11 0-18.307-8.83-18.307-19.721V442.883c0-10.891 8.197-19.721 18.307-19.721z" class="color807EFF svgShape"/><path fill="#ffffff" d="M314.816 450.7h318.016c9.829 0 17.798 7.768 17.798 17.35v195.68c0 9.582-7.968 17.349-17.798 17.349H314.816c-9.829 0-17.798-7.768-17.798-17.349V468.05c0-9.582 7.968-17.35 17.798-17.35zM358.795 437.322c0-1.816-1.366-3.288-3.052-3.288s-3.052 1.472-3.052 3.288c0 1.816 1.366 3.288 3.052 3.288 1.685 0 3.052-1.472 3.052-3.288zM343.33 437.322c0-1.816-1.366-3.288-3.052-3.288s-3.052 1.472-3.052 3.288c0 1.816 1.366 3.288 3.052 3.288s3.052-1.472 3.052-3.288zM327.866 437.322c0-1.816-1.366-3.288-3.052-3.288-1.685 0-3.052 1.472-3.052 3.288 0 1.816 1.366 3.288 3.052 3.288s3.052-1.472 3.052-3.288zM555.096 440.61h70.145a3.288 3.288 0 1 0 0-6.576h-70.145a3.288 3.288 0 1 0 0 6.576z" class="colorFFF svgShape"/><path fill="#d4d4ff" d="m413.731 544.63 16.938-18.642-8.131-1.767c6.862-22.388 26.465-38.715 50.537-40.988 27.084-2.559 52.855 14.327 61.277 40.15a3.657 3.657 0 1 0 6.952-2.268c-4.57-14.011-13.884-26.245-26.227-34.449-12.527-8.325-27.687-12.13-42.689-10.713-14.982 1.415-29.149 7.978-39.889 18.48a66.389 66.389 0 0 0-17.094 28.239l-9.349-2.031 7.675 23.989zM552.372 553.938l-10.303-22.984-14.753 20.415 8.967.919c-4.685 25.343-25.868 45.253-52.174 47.738-29.652 2.801-56.682-17.019-62.876-46.102a3.655 3.655 0 1 0-7.152 1.524c6.967 32.715 37.368 55.009 70.716 51.859 29.782-2.814 53.722-25.492 58.776-54.27l8.799.901zM438.594 613.397h4.675v9.035c0 .896-.139 1.742-.419 2.538a5.47 5.47 0 0 1-1.314 2.088c-.597.596-1.222 1.015-1.877 1.256-.91.338-2.003.506-3.279.506a20.7 20.7 0 0 1-2.415-.155c-.872-.104-1.602-.308-2.188-.615a5.484 5.484 0 0 1-1.609-1.307c-.486-.565-.819-1.147-.998-1.747-.29-.965-.434-1.819-.434-2.563v-9.035h4.675v9.25c0 .827.229 1.473.688 1.938.458.465 1.095.697 1.908.697.807 0 1.439-.229 1.898-.687.459-.458.688-1.108.688-1.948v-9.251zM446.352 613.397h7.789c1.696 0 2.967.403 3.812 1.21.845.807 1.267 1.955 1.267 3.445 0 1.531-.46 2.727-1.381 3.589-.921.862-2.326 1.293-4.215 1.293h-2.565v5.627h-4.706v-15.164zm4.706 6.464h1.148c.903 0 1.538-.157 1.903-.471.365-.313.548-.715.548-1.205 0-.476-.159-.879-.476-1.21-.317-.331-.914-.497-1.79-.497h-1.334v3.383zM461.733 613.397h6.961c1.372 0 2.481.186 3.326.558a5.411 5.411 0 0 1 2.095 1.604 6.627 6.627 0 0 1 1.2 2.431c.248.924.373 1.903.373 2.938 0 1.62-.185 2.878-.553 3.77-.369.893-.881 1.641-1.536 2.245-.655.603-1.359 1.005-2.11 1.205-1.028.276-1.959.414-2.793.414h-6.961v-15.165zm4.686 3.434v8.285h1.148c.979 0 1.676-.108 2.089-.326.414-.217.738-.596.972-1.138.234-.541.352-1.419.352-2.633 0-1.607-.262-2.706-.786-3.3-.524-.593-1.393-.889-2.607-.889h-1.168zM486.561 626.057h-5.32l-.739 2.503h-4.784l5.7-15.164h5.111l5.698 15.164h-4.907l-.759-2.503zm-.972-3.279-1.674-5.451-1.656 5.451h3.33zM491.192 613.397h14.244v3.744h-4.779v11.42h-4.686v-11.42h-4.779v-3.744zM507.546 613.397h12.558v3.238h-7.861v2.41h7.293v3.093h-7.293v2.989h8.089v3.434h-12.785v-15.164z" class="colorD4D4FF svgShape"/><path fill="#d4d4ff" d="m486.022 514.842-1.648.467a22.381 22.381 0 0 0-4.003-5.354l.979-1.753a5.433 5.433 0 1 0-9.487-5.299l-.836 1.498a22.19 22.19 0 0 0-6.613-.957h-.002l-.547-1.932a5.434 5.434 0 1 0-10.456 2.962l.467 1.648a22.404 22.404 0 0 0-5.354 4.002l-1.753-.979a5.433 5.433 0 1 0-5.299 9.487l1.497.836a22.23 22.23 0 0 0-.958 6.614v.002l-1.931.547a5.434 5.434 0 1 0 2.962 10.456l1.647-.467a22.386 22.386 0 0 0 4.003 5.355l-.979 1.752a5.433 5.433 0 1 0 9.487 5.299l.833-1.492h.001c2.122.639 4.351.968 6.618.957l.546 1.927a5.434 5.434 0 1 0 10.456-2.962l-.466-1.647a22.388 22.388 0 0 0 5.354-4.003l1.752.979a5.433 5.433 0 1 0 5.299-9.487l-1.493-.834c.639-2.123.968-4.351.957-6.618l1.928-.546a5.434 5.434 0 0 0 3.747-6.709 5.432 5.432 0 0 0-6.708-3.749zm-5.925 6.713c2.435 8.594-2.562 17.54-11.156 19.975-8.594 2.435-17.54-2.562-19.975-11.156-2.436-8.599 2.562-17.541 11.156-19.975s17.539 2.557 19.975 11.156z" class="colorD4D4FF svgShape"/><path fill="#d4d4ff" d="M454.693 528.751c1.539 5.433 7.191 8.59 12.625 7.051 5.433-1.539 8.595-7.193 7.056-12.626-1.539-5.433-7.198-8.594-12.631-7.055-5.433 1.54-8.589 7.197-7.05 12.63zM512.413 560.116h-1.267a16.549 16.549 0 0 0-1.769-4.616l1.05-1.05a4.02 4.02 0 0 0-5.683-5.683l-.897.897a16.432 16.432 0 0 0-4.512-2.014h-.002v-1.485a4.018 4.018 0 0 0-8.036 0v1.267a16.549 16.549 0 0 0-4.616 1.769l-1.05-1.05a4.02 4.02 0 0 0-5.683 5.683l.897.897a16.425 16.425 0 0 0-2.014 4.513v.001h-1.485a4.018 4.018 0 0 0 0 8.036h1.266a16.543 16.543 0 0 0 1.769 4.617l-1.049 1.05a4.02 4.02 0 0 0 5.683 5.683l.894-.894.001.001a16.67 16.67 0 0 0 4.516 2.015v1.481a4.018 4.018 0 0 0 8.036 0v-1.266a16.555 16.555 0 0 0 4.617-1.769l1.05 1.05a4.02 4.02 0 0 0 5.683-5.683l-.894-.894a16.67 16.67 0 0 0 2.015-4.516h1.482c2.219 0 4.018-1.799 4.018-4.018s-1.801-4.022-4.02-4.022zm-5.57 3.583c0 6.606-5.358 11.964-11.964 11.964s-11.964-5.358-11.964-11.964c0-6.61 5.358-11.964 11.964-11.964s11.964 5.354 11.964 11.964z" class="colorD4D4FF svgShape"/><path fill="#d4d4ff" d="M487.317 563.699a7.564 7.564 0 0 0 15.127 0 7.564 7.564 0 1 0-15.127 0z" class="colorD4D4FF svgShape"/><path fill="#ff9ed5" d="M324.51 665.592c-6.683 0-12.12-5.437-12.12-12.12 0-6.683 5.437-12.12 12.12-12.12h298.522c6.683 0 12.12 5.437 12.12 12.12 0 6.683-5.437 12.12-12.12 12.12H324.51z" class="colorFF9ED5 svgShape"/><path fill="#ffffff" d="M324.51 662.797c-5.142 0-9.324-4.183-9.324-9.324s4.183-9.324 9.324-9.324h298.522c5.142 0 9.324 4.183 9.324 9.324 0 5.142-4.183 9.324-9.324 9.324H324.51z" class="colorFFF svgShape"/><path fill="#ff9ed5" d="M630.376 653.472c0 2.097-.85 3.992-2.225 5.367a7.57 7.57 0 0 1-5.362 2.22H324.753a7.587 7.587 0 0 1-7.587-7.587c0-2.097.85-3.992 2.225-5.362a7.542 7.542 0 0 1 5.362-2.225h298.036a7.59 7.59 0 0 1 7.587 7.587z" class="colorFF9ED5 svgShape"/><path fill="#ff8acc" d="M626.056 646.633c.162.617.257 1.261.257 1.929 0 2.097-.85 3.992-2.225 5.367a7.57 7.57 0 0 1-5.362 2.22H320.69a7.547 7.547 0 0 1-3.267-.747c.855 3.255 3.809 5.657 7.33 5.657h298.036a7.57 7.57 0 0 0 5.362-2.22 7.564 7.564 0 0 0 2.225-5.367 7.582 7.582 0 0 0-4.32-6.839z" class="colorFF8ACC svgShape"/><path fill="#ff8acc" d="m330.232 645.885-6.916 15.034a7.604 7.604 0 0 1-4.411-2.605l5.72-12.423c.045-.005.084-.005.129-.005h5.478zM342.191 645.885l-6.977 15.174h-5.613l6.983-15.174zM354.151 645.885l-6.978 15.174h-5.608l6.978-15.174zM366.11 645.885l-6.978 15.174h-5.608l6.978-15.174zM378.068 645.885l-6.977 15.174h-5.608l6.978-15.174zM390.027 645.885l-6.977 15.174h-5.608l6.978-15.174zM401.992 645.885l-6.983 15.174h-5.608l6.978-15.174zM413.951 645.885l-6.983 15.174h-5.608l6.983-15.174zM425.91 645.885l-6.977 15.174h-5.614l6.983-15.174zM437.869 645.885l-6.977 15.174h-5.608l6.977-15.174zM449.828 645.885l-6.977 15.174h-5.608l6.978-15.174zM461.787 645.885l-6.977 15.174h-5.608l6.978-15.174zM473.746 645.885l-6.977 15.174h-5.608l6.977-15.174z" class="colorFF8ACC svgShape"/><path fill="#ffffff" d="M447.227 657.553v-8.625h1.141v7.608h4.248v1.018h-5.389zM453.446 654.428c0-1.157.322-2.014.965-2.571.537-.463 1.192-.694 1.965-.694.859 0 1.561.281 2.106.844.545.563.818 1.341.818 2.333 0 .804-.121 1.437-.362 1.897a2.56 2.56 0 0 1-1.053 1.074 3.066 3.066 0 0 1-1.509.382c-.875 0-1.582-.28-2.121-.841-.539-.56-.809-1.368-.809-2.424zm1.089 0c0 .8.174 1.399.524 1.797.349.398.788.597 1.318.597.526 0 .963-.2 1.312-.6.349-.4.524-1.01.524-1.83 0-.773-.176-1.358-.527-1.756a1.676 1.676 0 0 0-1.309-.597c-.53 0-.969.198-1.318.594-.35.397-.524.995-.524 1.795zM464.619 656.782c-.392.333-.77.569-1.133.706a3.28 3.28 0 0 1-1.168.206c-.686 0-1.214-.168-1.583-.503-.369-.335-.553-.764-.553-1.286 0-.306.07-.585.209-.838.139-.253.322-.456.547-.609.226-.153.48-.269.762-.347.208-.055.522-.108.941-.159.855-.102 1.485-.224 1.889-.365l.006-.277c0-.431-.1-.735-.3-.912-.271-.239-.673-.359-1.206-.359-.498 0-.866.087-1.103.262-.237.175-.413.483-.527.927l-1.036-.141c.094-.443.249-.801.465-1.074.216-.273.527-.482.936-.63.408-.147.881-.221 1.418-.221.533 0 .967.063 1.3.188.333.126.578.283.735.474.157.19.267.43.329.721.035.18.053.506.053.977v1.412c0 .985.023 1.607.068 1.868.045.261.134.511.268.75h-1.106a2.27 2.27 0 0 1-.211-.77zm-.088-2.365c-.384.157-.961.29-1.73.4-.435.063-.743.133-.924.212a.905.905 0 0 0-.565.847c0 .282.107.518.321.706.214.188.527.282.939.282.408 0 .771-.089 1.088-.268.318-.178.551-.423.7-.733.114-.239.171-.592.171-1.059v-.387zM471.297 657.553v-.788c-.396.62-.979.93-1.747.93-.498 0-.956-.137-1.374-.412a2.708 2.708 0 0 1-.971-1.15c-.229-.492-.344-1.058-.344-1.697 0-.624.104-1.189.312-1.697.208-.508.52-.897.935-1.168a2.5 2.5 0 0 1 1.394-.406 2.08 2.08 0 0 1 1.724.859v-3.095h1.053v8.625h-.982zm-3.348-3.119c0 .8.169 1.398.506 1.794.337.396.735.594 1.194.594.463 0 .856-.189 1.18-.568.324-.378.485-.956.485-1.733 0-.855-.165-1.483-.494-1.883-.33-.4-.735-.6-1.218-.6-.471 0-.864.192-1.18.577-.315.386-.473.992-.473 1.819zM473.951 650.145v-1.218h1.059v1.218h-1.059zm0 7.408v-6.249h1.059v6.249h-1.059zM476.622 657.553v-6.249h.953v.888c.459-.686 1.122-1.03 1.989-1.03.376 0 .723.068 1.038.203.316.135.552.313.709.533.157.22.267.481.329.782.039.196.059.539.059 1.03v3.842h-1.059v-3.801c0-.431-.041-.754-.124-.968s-.229-.384-.438-.512a1.39 1.39 0 0 0-.738-.191c-.451 0-.84.143-1.168.43-.328.286-.491.83-.491 1.63v3.413h-1.059zM483.129 658.07l1.03.153c.043.318.163.549.359.694.263.196.622.294 1.077.294.49 0 .869-.098 1.136-.294.267-.196.447-.471.541-.824.055-.216.08-.669.077-1.359-.463.545-1.039.818-1.73.818-.859 0-1.524-.31-1.995-.93-.471-.62-.706-1.363-.706-2.23 0-.596.108-1.146.324-1.65.216-.504.528-.893.938-1.168.41-.275.891-.412 1.444-.412.737 0 1.345.298 1.824.894v-.753h.977v5.401c0 .973-.099 1.662-.297 2.068a2.173 2.173 0 0 1-.941.962c-.43.235-.958.353-1.586.353-.745 0-1.347-.168-1.806-.503-.46-.334-.681-.839-.666-1.514zm.877-3.753c0 .82.163 1.418.488 1.794a1.55 1.55 0 0 0 1.224.565c.486 0 .894-.187 1.224-.562.329-.374.494-.962.494-1.762 0-.765-.17-1.342-.509-1.73-.339-.388-.748-.582-1.227-.582-.471 0-.871.191-1.2.574-.329.382-.494.949-.494 1.703zM490.325 657.553v-1.206h1.206v1.206h-1.206zM493.673 657.553v-1.206h1.206v1.206h-1.206zM497.021 657.553v-1.206h1.206v1.206h-1.206z" class="colorFFF svgShape"/><path fill="#ff8fcf" d="M718.512 250.103h398.581c12.32 0 22.307 10.759 22.307 24.031v271.037c0 13.272-9.987 24.031-22.307 24.031H718.512c-12.32 0-22.307-10.759-22.307-24.031V274.134c0-13.272 9.987-24.031 22.307-24.031z" class="colorFF8FCF svgShape"/><path fill="#ffffff" d="M724.048 283.659h387.51c11.977 0 21.687 9.465 21.687 21.141v238.44c0 11.676-9.71 21.141-21.687 21.141h-387.51c-11.977 0-21.687-9.465-21.687-21.141V304.8c0-11.676 9.709-21.141 21.687-21.141zM777.637 267.357c0-2.213-1.665-4.006-3.719-4.006s-3.719 1.793-3.719 4.006c0 2.212 1.665 4.006 3.719 4.006 2.054.001 3.719-1.793 3.719-4.006zM758.793 267.357c0-2.213-1.665-4.006-3.719-4.006s-3.719 1.793-3.719 4.006c0 2.212 1.665 4.006 3.719 4.006 2.054.001 3.719-1.793 3.719-4.006zM739.95 267.357c0-2.213-1.665-4.006-3.719-4.006s-3.719 1.793-3.719 4.006c0 2.212 1.665 4.006 3.719 4.006 2.054.001 3.719-1.793 3.719-4.006zM1016.834 271.364h85.474a4.005 4.005 0 1 0 0-8.012h-85.474a4.007 4.007 0 0 0 0 8.012z" class="colorFFF svgShape"/><path fill="#807eff" d="M812.424 463.25h-60.158v-27.16l60.158-71.508h28.782v73.049h14.918v25.62h-14.918v22.215h-28.782V463.25zm0-25.62v-37.405l-31.786 37.405h31.786z" class="color807EFF svgShape"/><path fill="#6e6ce6" d="M849.932 437.63h6.191v25.62h-6.191zM835.015 364.582h6.191v73.049h-6.191zM780.637 437.63l31.787-36.524v-7.285l-37.978 43.809zM835.015 463.25h6.191v22.215h-6.191z" class="color6E6CE6 svgShape"/><path fill="#807eff" d="M1056.188 463.25H996.03v-27.16l60.158-71.508h28.782v73.049h14.918v25.62h-14.918v22.215h-28.782V463.25zm0-25.62v-37.405l-31.787 37.405h31.787z" class="color807EFF svgShape"/><path fill="#6e6ce6" d="M1093.696 437.63h6.191v25.62h-6.191zM1078.778 364.582h6.191v73.049h-6.191zM1024.401 437.63l31.787-36.524v-7.285l-37.978 43.809zM1078.778 463.25h6.191v22.215h-6.191z" class="color6E6CE6 svgShape"/><path fill="#807eff" d="M881.107 374.312c-26.255 24.361-27.883 65.446-3.63 91.585 24.253 26.139 65.345 27.586 91.6 3.225 26.255-24.361 27.883-65.446 3.63-91.585-24.254-26.139-65.344-27.586-91.6-3.225zm81.204 87.517c-22.251 20.646-56.953 19.425-77.508-2.728-20.555-22.153-19.18-56.849 3.071-77.495 22.251-20.646 56.953-19.424 77.508 2.729 20.555 22.152 19.18 56.847-3.071 77.494z" class="color807EFF svgShape"/><path fill="#807eff" d="m958.796 471.198 13.19-12.238 12.185 13.132-13.19 12.238z" class="color807EFF svgShape"/><path fill="#807eff" d="M1030.989 535.846c-7.736 7.178-16.387 10.299-19.095 6.883-2.399-3.023-20.564-25.916-22.407-28.243-6.414-8.078-13.997-17.64-20.606-25.97a3.274 3.274 0 0 1 .339-4.435l14.768-13.701a3.274 3.274 0 0 1 4.447-.007c7.812 7.208 16.781 15.496 24.356 22.488 2.107 1.949 23.776 21.952 26.488 24.457 3.196 2.964-.554 11.35-8.29 18.528z" class="color807EFF svgShape"/><path fill="#ffffff" d="m1009.832 490.132-22.851 21.199-3.333-4.202 22.24-20.64zM1016.733 496.505l-23.91 22.189-3.337-4.208 23.303-21.624z" class="colorFFF svgShape"/><circle cx="1022.55" cy="525.45" r="5.817" fill="#ffffff" class="colorFFF svgShape"/><path fill="#807eff" d="M896.248 416.172c.331.331.733.506 1.162.506.692 0 1.37-.471 1.65-1.146.26-.627.119-1.298-.377-1.794l-6.516-6.515 6.102-6.102c.497-.496.638-1.167.378-1.794-.28-.675-.958-1.147-1.651-1.147-.429 0-.831.175-1.162.506l-6.102 6.102-6.102-6.102c-.331-.331-.733-.506-1.162-.506-.692 0-1.37.472-1.65 1.147-.26.627-.119 1.298.378 1.794l6.102 6.102-6.515 6.516c-.497.496-.638 1.167-.378 1.794.28.675.958 1.147 1.65 1.147.429 0 .831-.175 1.162-.506l6.515-6.516 6.516 6.514zM969.927 413.738l-6.515-6.515 6.102-6.102c.496-.496.637-1.167.378-1.794-.28-.675-.958-1.147-1.65-1.147-.429 0-.831.175-1.162.506l-6.102 6.102-6.102-6.102c-.331-.331-.733-.506-1.162-.506-.692 0-1.37.472-1.65 1.147-.26.627-.119 1.298.378 1.794l6.102 6.102-6.515 6.516c-.497.496-.638 1.167-.378 1.794.28.675.958 1.147 1.65 1.147.429 0 .831-.175 1.162-.506l6.515-6.516 6.516 6.516c.331.331.733.506 1.162.506.692 0 1.37-.471 1.65-1.146.259-.629.118-1.3-.379-1.796zM952.688 433.945v-.002l-.213-.063a71.07 71.07 0 0 0-4.196-1.103 83.82 83.82 0 0 0-1.816-.399l-.001-.002-.145-.03a81.44 81.44 0 0 0-1.73-.341l-.008-.001-.139-.026-.001.001a99.265 99.265 0 0 0-5.963-.917l-.165-.02-.001.001c-3.636-.438-7.279-.67-10.545-.67-14.451 0-29.408 3.21-37.219 7.987-.39.238-.665.613-.772 1.057-.108.445-.036.904.203 1.295.313.514.86.82 1.462.82.314 0 .623-.087.893-.251 7.207-4.407 21.778-7.484 35.433-7.484 2.951 0 6.231.2 9.513.577l-1.034 5.806c-.739 4.147 2.034 8.122 6.18 8.86a7.627 7.627 0 0 0 8.862-6.177l.972-5.458c4.569 1.425 7.913 3.106 9.677 4.872.323.323.753.501 1.211.501.459 0 .888-.178 1.212-.501a1.718 1.718 0 0 0-.001-2.42c-2.283-2.283-6.211-4.27-11.669-5.912zm-8.925 11.997a4.427 4.427 0 0 1-4.355-5.198l1.061-5.952c.92.137 1.851.29 2.778.456l-.902 5.064c-.076.422.017.849.262 1.202a1.599 1.599 0 0 0 1.322.69c.78 0 1.445-.557 1.582-1.325l.893-5.005c.929.203 1.848.42 2.744.65l-1.029 5.772a4.42 4.42 0 0 1-4.356 3.646zM888.525 335.645c0-2.775.773-4.935 2.318-6.48s3.698-2.318 6.457-2.318c2.828 0 5.008.759 6.538 2.278 1.53 1.518 2.295 3.646 2.295 6.382 0 1.986-.334 3.615-1.003 4.886a7.157 7.157 0 0 1-2.898 2.968c-1.264.707-2.839 1.061-4.724 1.061-1.917 0-3.503-.305-4.759-.916-1.256-.61-2.274-1.577-3.055-2.898-.779-1.323-1.169-2.977-1.169-4.963zm5.252.023c0 1.716.319 2.949.956 3.698.638.75 1.505 1.124 2.603 1.124 1.128 0 2.002-.367 2.62-1.101.619-.734.927-2.052.927-3.953 0-1.6-.323-2.769-.968-3.507s-1.52-1.107-2.626-1.107c-1.059 0-1.909.375-2.55 1.124-.642.751-.962 1.991-.962 3.722zM908.07 338.01c0-1.878.633-3.426 1.901-4.643 1.267-1.217 2.979-1.826 5.135-1.826 2.466 0 4.328.715 5.588 2.145 1.012 1.151 1.518 2.57 1.518 4.254 0 1.893-.628 3.445-1.884 4.654-1.256 1.21-2.993 1.814-5.211 1.814-1.978 0-3.578-.502-4.799-1.507-1.499-1.243-2.248-2.874-2.248-4.891zm4.73-.012c0 1.097.222 1.909.667 2.435.444.526 1.003.788 1.675.788.68 0 1.238-.259 1.675-.777.436-.517.655-1.348.655-2.492 0-1.066-.22-1.86-.661-2.382-.44-.522-.985-.783-1.635-.783-.688 0-1.256.265-1.704.794-.448.53-.672 1.336-.672 2.417zM924.509 348.814v-16.995h4.417v1.82c.611-.765 1.171-1.283 1.681-1.554a4.818 4.818 0 0 1 2.284-.545c1.646 0 2.919.63 3.82 1.89.9 1.26 1.351 2.817 1.351 4.672 0 2.048-.491 3.611-1.472 4.689-.982 1.078-2.222 1.617-3.721 1.617a5.169 5.169 0 0 1-1.988-.371 4.721 4.721 0 0 1-1.605-1.101v5.877h-4.767zm4.729-10.804c0 .974.205 1.696.614 2.168.41.471.927.707 1.554.707.549 0 1.008-.226 1.38-.678.371-.452.556-1.219.556-2.301 0-.997-.193-1.729-.58-2.196-.386-.468-.858-.702-1.414-.702-.603 0-1.105.236-1.507.707-.402.471-.603 1.236-.603 2.295zM939.486 340.711l4.683-.441c.193.557.464.955.811 1.194.348.24.811.359 1.391.359.634 0 1.125-.135 1.472-.405.27-.201.406-.451.406-.752 0-.34-.178-.602-.533-.787-.255-.131-.931-.293-2.029-.486-1.638-.286-2.776-.55-3.414-.793a3.599 3.599 0 0 1-1.611-1.233 3.202 3.202 0 0 1-.655-1.98c0-.811.236-1.509.707-2.096.471-.587 1.121-1.025 1.948-1.314.827-.289 1.936-.434 3.327-.434 1.468 0 2.552.112 3.252.336.699.224 1.283.572 1.751 1.043.467.471.856 1.109 1.165 1.913l-4.475.441c-.116-.394-.309-.684-.58-.87-.371-.247-.819-.371-1.345-.371-.533 0-.922.095-1.165.284-.244.189-.365.419-.365.689 0 .301.155.528.464.683.309.154.982.293 2.017.417 1.569.177 2.736.425 3.501.741.765.316 1.35.768 1.756 1.355.406.587.609 1.232.609 1.934 0 .71-.214 1.402-.643 2.073-.429.672-1.105 1.206-2.029 1.604-.923.397-2.181.596-3.773.596-2.249 0-3.851-.321-4.805-.962-.955-.644-1.567-1.556-1.838-2.738zM954.835 339.401h5.043v4.73h-5.043v-4.73zM962.741 339.401h5.043v4.73h-5.043v-4.73zM970.647 339.401h5.043v4.73h-5.043v-4.73z" class="color807EFF svgShape"/><path fill="#c6c6fa" d="M373.385 884.891h-11.151l30.477-152.066h11.15zM524.592 884.891h11.15l-30.477-152.066h-11.15z" class="colorC6C6FA svgShape"/><path fill="#ff7ac6" d="M534.37 751.513v15.504a3.08 3.08 0 0 1-3.08 3.08H362.873c-.518 0-1.01-.128-1.438-.358a3.072 3.072 0 0 1-1.642-2.722v-15.504a3.08 3.08 0 0 1 3.08-3.08H531.29a3.078 3.078 0 0 1 3.08 3.08z" class="colorFF7AC6 svgShape"/><path fill="#ffffff" d="m375.845 749.756-13.058 18.703c-.962-.45-1.616-1.353-1.616-2.389v-7.945l5.86-8.369h8.814zM398.088 749.756l-13.191 19.017h-8.967l13.224-19.017zM420.626 749.756l-13.104 19.017h-9.086l13.141-19.017zM443.468 749.756l-13.018 19.017h-9.207l13.05-19.017zM466.614 749.756l-12.93 19.017h-9.332l12.965-19.017zM490.078 749.756l-12.844 19.017h-9.461l12.88-19.017zM513.858 749.756l-12.757 19.017h-9.588l12.794-19.017zM532.992 752.46v2.149l-9.891 14.165h-8.849l13.312-19.017h2.396c1.676-.001 3.032 1.209 3.032 2.703z" class="colorFFF svgShape"/><path fill="#ff7ac6" d="M534.37 801.106v15.504a3.08 3.08 0 0 1-3.08 3.08H362.873c-.518 0-1.01-.128-1.438-.358a3.072 3.072 0 0 1-1.642-2.722v-15.504a3.08 3.08 0 0 1 3.08-3.08H531.29a3.08 3.08 0 0 1 3.08 3.08z" class="colorFF7AC6 svgShape"/><path fill="#ffffff" d="m375.845 799.35-13.058 18.703c-.962-.45-1.616-1.353-1.616-2.389v-7.945l5.86-8.369h8.814zM398.088 799.35l-13.191 19.017h-8.967l13.224-19.017zM420.626 799.35l-13.104 19.017h-9.086l13.141-19.017zM443.468 799.35l-13.018 19.017h-9.207l13.05-19.017zM466.614 799.35l-12.93 19.017h-9.332l12.965-19.017zM490.078 799.35l-12.844 19.017h-9.461l12.88-19.017zM513.858 799.35l-12.757 19.017h-9.588l12.794-19.017zM532.992 802.053v2.149l-9.891 14.165h-8.849l13.312-19.017h2.396c1.676 0 3.032 1.21 3.032 2.703z" class="colorFFF svgShape"/><circle cx="398.971" cy="722.166" r="13.451" fill="#ff7ac6" class="colorFF7AC6 svgShape"/><circle cx="398.971" cy="722.166" r="9.07" fill="#fae396" class="colorFAE396 svgShape"/><circle cx="497.027" cy="722.166" r="13.451" fill="#ff7ac6" class="colorFF7AC6 svgShape"/><circle cx="497.027" cy="722.166" r="9.07" fill="#fae396" class="colorFAE396 svgShape"/><path fill="#c6c6fa" d="M371.898 849.034h149.234v5.522H371.898zM371.898 862.272h149.234v5.522H371.898zM355.335 884.891h25.733v4.539h-25.733zM517.336 884.891h25.733v4.539h-25.733z" class="colorC6C6FA svgShape"/><path fill="#f9cbcb" d="M909.44 673.306s5.911 33.283 14.543 35.581c3.908 1.04 8.927.167 13.719-1.455 8.104-2.742 15.553-7.619 15.811-8.95l8.221-24.957c-4.732 2.039-31.692 17.408-33.895 18.88-3.567-5.355-11.303-19.287-11.556-20.31 0 0 1.669-7.509.195-9.622-1.31-1.87-1.792 4.263-2.345 3.52-.603-.818-4-6.028-6.375-3.491-5.275 5.653 1.682 10.804 1.682 10.804z" class="colorF9CBCB svgShape"/><path fill="#bbbaff" d="M932.389 688.87c.618 6.513 4.394 15.318 4.788 19.398 8.104-2.742 17.874-3.66 18.132-4.991l8.455-31.11c-4.733 2.039-21.969 11.122-31.375 16.703z" class="colorBBBAFF svgShape"/><path fill="#f1cccd" d="M963.905 815.437c1.703 6.341 2.755 12.031 3.312 17.323 1.434 13.517 1.03 34.33-1.443 47.485l-6.931-.68s-9.791-35.555-14.418-53.738c-1.189-4.613-2.112-8.734-2.592-11.843-2.796-17.743 7.559-68.009 8.224-71.263l.028-.125.009-.046 27.888-3.896c14.816 35.255-2.76 44.123-14.077 76.783z" class="colorF1CCCD svgShape"/><path fill="#211e57" d="M977.054 786.468c-3.935 8.097-8.966 16.906-13.149 28.969 1.543 5.743 3.3 11.714 5.331 18.674l-24.12 3.369c-1.189-4.613-2.803-20.389-3.283-23.498-2.796-17.743 7.559-68.009 8.224-71.263l.028-.125.009-.046 27.888-3.896c9.353 22.242 5.805 33.975-.928 47.816z" class="color211E57 svgShape"/><path fill="#1b1947" d="M977.054 786.468c-3.935 8.097-8.966 16.906-13.149 28.969 1.543 5.743 3.3 11.714 5.331 18.674l-4.45.622c-.763-6.886-6.847-18.208-8.89-17.845 1.81-.448 18.387-32.91 19.648-44.153l1.51 13.733z" class="color1B1947 svgShape"/><path fill="#f1cccd" d="m993.102 888.361 16.992-19.695s-12.477-19.487-22.572-32.443c-2.396-3.101-4.658-5.812-6.59-7.819-13.825-14.319-21.045-86.485-21.045-86.485h22.857c17.919 16.472 13.406 39.152 13.935 61.558.183 7.766 2.68 15.254 6.875 21.793a69.099 69.099 0 0 1 2.391 4.018c5.228 9.541 8.328 20.73 11.189 39.108l3.538 11.929-27.57 8.036z" class="colorF1CCCD svgShape"/><path fill="#2c2a6b" d="m1007.098 828.898-6.605 3.025-13.421 6.141c-2.396-3.1-4.209-7.653-6.141-9.661-13.825-14.319-22.752-86.769-22.752-86.769l23.59.269.974.015c17.319 15.921 13.683 37.642 13.898 59.309.087 8.842 2.946 17.473 8.339 24.479.791 1.03 1.511 2.085 2.118 3.192z" class="color2C2A6B svgShape"/><path fill="#211e57" d="m1007.098 828.898-6.605 3.025c-2.142-3.355-5.362-9.728-7.063-14.033-4.494-11.374-1.73-26.821-2.808-48.539-.795-16.002-14.32-23.778-14.32-23.778l5.467-3.67.974.015c17.319 15.921 13.683 37.642 13.898 59.309.087 8.842 2.946 17.473 8.339 24.479.791 1.03 1.511 2.085 2.118 3.192z" class="color211E57 svgShape"/><path fill="#9896ff" d="M994.352 695.337c-.195 14.409-3.745 39.393-5.092 48.38a4.633 4.633 0 0 1-1.932 3.13 4.51 4.51 0 0 1-1.917.764c-6.455.959-12.777 1.483-18.932 1.467-5.542 0-10.949-.419-16.207-1.333-2.052-.359-3.625-2.008-3.849-4.074-.734-6.8 1.399-21.718 1.054-36.232-.224-9.181 2.656-32.683 19.802-36.381l10.044-.091c11.263 2.921 15.982 11.533 16.76 17.554.239 1.784.313 4.12.269 6.816z" class="color9896FF svgShape"/><path fill="#211e57" d="M958.03 877.58c-10.667 4.095-22.503 3.673-23.24 13.3h33.758c.395-4.08-.48-9.294-2.231-13.3h-8.287zM1010.094 868.666c-8.538 7.593-21.311 12.946-18.607 22.215l30.993-10.361c-1.069-3.957-2.503-10.311-5.554-13.443l-6.832 1.589z" class="color211E57 svgShape"/><path fill="#2c2a6b" d="M970.408 662.2c3.27 1.011 4.591 2.644 8.773.755 6.363-2.875 11.735-13.889 3.285-18.87-.584-1.744-1.173-2.422-3.4-2.906-2.226-.483-4.509.486-7.579.433-3.069-.053-5.193-3.158-7.869 1.306-2.676 4.463 1.741 7.88 5.066 10.077 3.326 2.197 2.247 5.989 1.724 9.205z" class="color2C2A6B svgShape"/><path fill="#f9cbcb" d="M977.464 670.994c-3.654 3.655-7.102 4.355-10.186.065l.868-7.05.362-2.968h8.087l.156 1.84.713 8.113z" class="colorF9CBCB svgShape"/><path fill="#f0b4b4" d="M976.866 664.193c-1.998 2.405-7.505 3.101-8.998 2.07l.64-5.222 8.133-3.413.225 6.565z" class="colorF0B4B4 svgShape"/><path fill="#f9cbcb" d="M964.364 646.905c-1.488 4.195-2.947 13.469.613 16.918 2.254 2.183 10.431 1.339 12.101-4.665 1.972-1.429 3.42-4.911 1.603-6.491-1.296-1.126-2.951 1.85-5.21 1.357-.857-.187 1.776-5.916-.9-6.908-2.677-.992-5.508 1.159-8.207-.211z" class="colorF9CBCB svgShape"/><path fill="#c8cbe3" d="m935.613 651.29.553-5.058a.46.46 0 0 0-.185-.421l-1.781-1.302-2.214 3.028a5.356 5.356 0 0 1-8.646-6.322l2.215-3.028-1.781-1.302a.458.458 0 0 0-.456-.05l-4.639 2.042a.46.46 0 0 0-.272.37l-1.098 10.041a.462.462 0 0 0 .185.421l1.856 1.36-21.541 29.456a2.76 2.76 0 0 0 4.453 3.257l21.537-29.451 1.841 1.35a.46.46 0 0 0 .457.05l9.245-4.069a.465.465 0 0 0 .271-.372zm-36.146 31.64a1.263 1.263 0 1 1 1.492-2.04 1.263 1.263 0 0 1-1.492 2.04z" class="colorC8CBE3 svgShape"/><path fill="#c8cbe3" d="m935.613 651.29.553-5.058a.46.46 0 0 0-.185-.421l-1.781-1.302-2.214 3.028a5.356 5.356 0 0 1-8.646-6.322l2.215-3.028-1.781-1.302a.458.458 0 0 0-.456-.05l-4.639 2.042a.46.46 0 0 0-.272.37l-1.098 10.041a.462.462 0 0 0 .185.421l1.856 1.36-21.541 29.456a2.76 2.76 0 0 0 4.453 3.257l21.537-29.451 1.841 1.35a.46.46 0 0 0 .457.05l9.245-4.069a.465.465 0 0 0 .271-.372zm-36.146 31.64a1.263 1.263 0 1 1 1.492-2.04 1.263 1.263 0 0 1-1.492 2.04z" class="colorC8CBE3 svgShape"/><path fill="#a1a6c9" d="M917.383 649.587c.03.046.065.089.111.122l1.079.791.02-.027-1.21-.886zM925.554 638.187l-.777-.568-2.194 3.001a5.355 5.355 0 0 0 1.162 7.484c.076.056.156.103.234.154a5.353 5.353 0 0 1-.639-7.042l2.214-3.029zM936.166 646.232a.46.46 0 0 0-.186-.421l-.645-.471c.056.087.085.19.073.296l-.553 5.058a.46.46 0 0 1-.272.37l-9.245 4.069a.46.46 0 0 1-.457-.05l-1.841-1.35-21.537 29.451a2.754 2.754 0 0 1-3.531.799 2.757 2.757 0 0 0 4.288-.203l21.537-29.451 1.841 1.35a.46.46 0 0 0 .457.05l9.245-4.069a.457.457 0 0 0 .271-.371l.555-5.057zM899.113 682.526a1.26 1.26 0 0 1 .08-1.361 1.264 1.264 0 0 1 1.362-.465 1.273 1.273 0 0 0-.354-.405 1.262 1.262 0 1 0-1.491 2.038c.125.093.262.154.403.193z" class="colorA1A6C9 svgShape"/><path fill="#ffbc47" d="M973.378 772.743h-33.487v-2.978c0-6.925 5.634-12.559 12.559-12.559h8.369c6.925 0 12.559 5.634 12.559 12.559v2.978zm-29.312-3.977h25.138c-.213-4.736-3.999-8.52-8.622-8.52h-7.894c-4.623 0-8.409 3.784-8.622 8.52zM979.873 811.439h-46.046a3.347 3.347 0 0 1-3.324-2.956l-3.252-27.599h59.2l-3.252 27.599a3.35 3.35 0 0 1-3.326 2.956z" class="colorFFBC47 svgShape"/><path fill="#e6a32e" d="m927.25 780.885.518 4.393h47.345c4.137 0 7.105 3.695 6.645 8.104l-1.884 18.058a3.347 3.347 0 0 0 3.324-2.956l3.252-27.599h-59.2z" class="colorE6A32E svgShape"/><path fill="#ffbc47" d="M986.449 780.885h-59.2v-.562c0-6.494 5.265-11.759 11.759-11.759h35.682c6.494 0 11.759 5.265 11.759 11.759v.562z" class="colorFFBC47 svgShape"/><path fill="#ffffff" d="M956.852 788.249h-.369a3.861 3.861 0 0 1-3.861-3.861v-2.097a3.861 3.861 0 0 1 3.861-3.861h.369a3.861 3.861 0 0 1 3.861 3.861v2.097a3.861 3.861 0 0 1-3.861 3.861z" class="colorFFF svgShape"/><path fill="#ffbc47" d="M956.667 786.741a2.54 2.54 0 0 1-2.538-2.538v-1.728a2.541 2.541 0 0 1 2.538-2.538 2.541 2.541 0 0 1 2.538 2.538v1.728a2.54 2.54 0 0 1-2.538 2.538z" class="colorFFBC47 svgShape"/><path fill="#ffffff" d="M955.531 783.339a1.136 1.136 0 1 1 2.272 0 1.136 1.136 0 0 1-2.272 0z" class="colorFFF svgShape"/><path fill="#f9cbcb" d="M992.994 690.91s2.035 13.91 1.006 23.95c-.256 2.394-.678 4.555-1.34 6.267-4.593 11.848-25.919 31.068-25.919 31.068-2.5 9.368-6.984 10.274-10.844 9.7-6.877-1.057-.44-2.761-.44-4.926 0 0-3.623.957-4.284-.732-1.155-2.952 7.805-6.809 7.805-6.809 6.408-11.951 13.719-22.337 18.531-32.661-.328-1.473-.656-2.945-.952-4.427-2.085-10.677-.854-17.977 2.141-29.165 8.205.656 10.975 1.548 14.296 7.735z" class="colorF9CBCB svgShape"/><path fill="#bbbaff" d="m995.915 713.16-21.078 2.114c-2.085-10.677-3.694-36.547 7.802-37.961 15.305-1.883 14.305 25.807 13.276 35.847z" class="colorBBBAFF svgShape"/><path fill="#2c2a6b" d="M487.813 186.446s6.541-4.765 2.242-11.773c-4.298-7.007-13.829-5.045-15.62-1.37-3.535-.592-6.293 1.781-7.833 3.986-1.214 1.739-2.663 5.232-.887 12.053 1.775 6.821-7.974 10.714-9.297 15.323-.851 2.965.467 6.167 6.494 6.868 6.027.701 22.145-5.839 22.145-5.839 1.912-.005 9.044-7.109 2.756-19.248z" class="color2C2A6B svgShape"/><path fill="#e3c0c1" d="M534.188 344.978c-2.809-14.232-4.342-25.869-3.952-36.121.277-7.519 1.02-14.421 1.625-21.361l-43.606-24.962L474.4 254.6h26.552s37.875 12.28 44.298 22.985c4.32 7.204 3.426 23.439 1.398 38.162-2.141 15.441-5.542 29.232-5.542 29.232h-6.918z" class="colorE3C0C1 svgShape"/><path fill="#333333" d="m534.079 344.662-2.235 7.31 1.399 11.362 2.25.109 2.052-9.947 3.633 6.605c.978 1.778 2.447 3.233 4.459 3.494 5.309.688 15.682.867 16.112-2.616.442-3.58-9.614-3.733-12.551-7.669-2.844-3.812-6.263-8.797-6.263-8.797l-8.856.149z" class="color333 svgShape"/><path fill="#2c2a6b" d="m546.648 315.745-9.031 1.486-7.381-8.375-32.597-36.965-9.384-9.358-7.948-7.934h20.644s37.875 12.28 44.298 22.985c4.321 7.204 3.426 23.438 1.399 38.161z" class="color2C2A6B svgShape"/><path fill="#f1cccd" d="M542.02 345.4c-7.935-6.801-13.208-15.423-17.326-25.234-2.67-6.36-4.749-13.186-6.487-20.277 0 0-40.406-3.413-51.037-18.879-7.242-10.542-1.436-26.411-1.436-26.411 6.902.214 15.958-1.297 21.677.554 21.551 6.965 44.689 16.146 50.067 31.058 3.174 8.804 5.366 18.539 7.557 29.333 1.813 8.917 3.448 19.279 5.841 29.708l-8.856.148z" class="colorF1CCCD svgShape"/><path fill="#2c2a6b" d="m545.036 315.544-13.477 3.06-6.864 1.562c-2.67-6.36-4.749-13.186-6.487-20.277 0 0-23.793-2.015-39.663-9.925-4.811-2.406-8.905-5.353-11.374-8.955-6.625-9.648-2.33-23.766-1.549-26.084.076-.214.113-.327.113-.327h.05c6.902.201 16.727-1.952 22.432-.101 21.551 6.965 44.916 16.499 50.294 31.411 3.187 8.804 4.333 18.842 6.525 29.636z" class="color2C2A6B svgShape"/><path fill="#cccccc" d="M478.544 289.964c-4.811-2.406-8.905-5.353-11.374-8.955-6.625-9.648-2.33-23.766-1.549-26.084.076-.214.113-.327.113-.327h.05l6.751 2.808c-4.809 12.193-2.064 22.9 6.009 32.558z" class="colorCCC svgShape"/><path fill="#ff8fcf" d="M491.914 226.646c4.536 5.48 12.643 11.833 17.286 17.223 2.289-1.984 4.955-2.967 6.872-5.496-7.801-11.829-16.48-23.773-26.447-33.918 1.859 7.72.121 14.585 2.289 22.191z" class="colorFF8FCF svgShape"/><path fill="#ff8fcf" d="M502.866 255.241c-10.681-1.423-19.448 3.01-30.33 2.166a35.97 35.97 0 0 1-4.03-.541c-2.532-.504-4.295-2.821-4.031-5.39l3.59-35.013 3.162-10.769.73-2.468 5.661-3.036 6.225.215c9.283 4.03 15.685 14.937 10.055 26.99-5.467 11.712 8.968 27.846 8.968 27.846z" class="colorFF8FCF svgShape"/><path fill="#f1cccd" d="M484.115 200.499c0 3.523-3.272 3.523-6.554 0l.77-4.259.476-2.649 4.935 2.467.364 4.346.009.095z" class="colorF1CCCD svgShape"/><path fill="#cccccc" d="M475.748 225.316c-2.481 6.751-5.001 22.86-3.212 32.091a35.97 35.97 0 0 1-4.03-.541c-2.532-.504-4.295-2.821-4.031-5.39l3.59-35.013 3.162-10.769c2.783 2.191 4.381 4.909 4.381 4.909s3.188 6.488.14 14.713z" class="colorCCC svgShape"/><path fill="#f1cccd" d="M505.698 243.248c-2.833 4.31-4.567 3.534-8.364 3.763-4.948-.283-10.254.477-15.255.086-6.035-.471-14.908 1.478-19.818-2.531-4.91-4.009 1.312-23.791 2.762-28.241 1.926-5.909 4.083-8.484 6.922-13.16-1.273 4.53-2.546 8.855-3.82 13.305.8 6.89 1.471 13.817 2.183 20.706 4.878.659 8.544 1.093 13.694 1.968 4.546.772 10.751 1.832 15.484 3.125 4.177-2.271 9.046-3.331 6.212.979z" class="colorF1CCCD svgShape"/><path fill="#ff8fcf" d="M484.169 238.535c-.509 2.753-1.436 6.424-2.149 9.284-6.383.299-14.063 1.558-20.014-3.451-5.951-5.009-1.945-25.3.459-30.85 2.581-5.958 4.733-7.857 9.497-10.376 9.115 9.164-.46 21.892-1.629 34.042 4.515.573 9.344.621 13.836 1.351z" class="colorFF8FCF svgShape"/><path fill="#cccccc" d="M483.99 199.021c-.337.043-1.426.434-1.819.365-2.045-.361-2.956-1.293-3.839-3.146l.476-2.649 4.935 2.467.247 2.963z" class="colorCCC svgShape"/><path fill="#f1cccd" d="M487.92 177.563s-2.502 5.301-10.901 7.267c0 0-2.621-2.859-3.753-1.072-1.132 1.787 1.609 4.944 1.609 4.944.314 5.193 4.051 9.312 7.922 8.339 8.805-2.213 5.123-19.478 5.123-19.478z" class="colorF1CCCD svgShape"/><path fill="#2c2a6b" d="m542.02 345.4-2.235 7.31 1.399 11.362 2.25.11 2.052-9.947 3.633 6.604c.978 1.778 2.446 3.233 4.459 3.494 5.308.688 15.682.867 16.112-2.616.442-3.58-9.614-3.734-12.551-7.669-2.844-3.812-6.263-8.797-6.263-8.797l-8.856.149z" class="color2C2A6B svgShape"/><path fill="#c8cced" d="m490.912 259.461 7.37-22.123a4.28 4.28 0 0 1 3.74-2.201h32.927c3.096 0 5.168 3.187 3.91 6.016l-8.563 19.266a4.606 4.606 0 0 1-4.209 2.735h-32.512a2.806 2.806 0 0 1-2.663-3.693z" class="colorC8CCED svgShape"/><circle cx="516.28" cy="250.616" r="3.125" fill="#ffffff" class="colorFFF svgShape"/><path fill="#ffcbc7" d="M247.207 874.929c.2 2.576-2.733 5.275-2.892 7.923 11.148 2.341 22.389 4.247 33.628 6.182-1.911-8.927-13.173-8.423-20.598-11.299 0-44.469 19.064-96.168 8.565-140.022-3.509-.078-3.761.954-7.882.788-4.121-.166-11.171-.648-15.903-.937-1.398 40.586 4.805 133.804 5.082 137.365z" class="colorFFCBC7 svgShape"/><path fill="#ffcbc7" d="M181.816 833.914c-2.501-.855-5.414 1.815-7.932 1.187 2.258 10.149 5.582 16.383 10.31 25.714 2.887-5.793 1.95-11.505 3.035-17.694 7.539-1.795 47.124-15.094 52.534-26.772 10.028-21.647 23.695-46.381 18.576-77.845-6.625-.203-13.251-.767-19.851-1.073-12.356 17.48-15.531 64.413-18.625 69.572-6.002 10.003-35.244 23.405-38.047 26.911z" class="colorFFCBC7 svgShape"/><path fill="#263182" d="M270.465 880.794c2.759 1.32 11.783 3.217 9.579 8.346-2.205 5.13-29.049.049-33.773-2.65-4.723-2.698-.353-8.03 1.08-11.154 4.243 8.331 16.678 12.815 24.926 9.334 3.103-1.308-1.274-3.333-1.812-3.876zM186.032 853.81c-.14 1.869 1.654 11.856-3.019 10.91-4.673-.945-12.783-25.756-10.82-30.471 2.243-5.386 7.737-1.081 9.547-.361-6.702 4.589-3.18 18.743 2.075 22.229 1.828 1.212 2.259-1.45 2.217-2.307zM205.458 803.745s6.295 6.836 12.212 5.421c0 0 6.555 9.761 16.85 3.02 7.802 4.744 15.594 4.744 23.396 0 10.286 6.741 16.851-3.02 16.851-3.02 5.917 1.415 12.211-5.421 12.211-5.421-5.649-26.129-17.86-48.446-20.821-67.011l-28.337.922c-8.759 8.568-14.367 44.326-32.362 66.089zM252.331 654.976c3.283 3.433 4.664 9.535 1.939 13.68-2.146 4.326-2.103 9.388-1.681 14.115-1.05-4.728-1.158-9.991 1.109-14.408 2.691-3.974 1.475-9.807-1.367-13.387z" class="color263182 svgShape"/><path fill="#ffcbc7" d="M282.096 641.079c.046-.045.883-.556.898-3.12.005-.763-1.55-5.028-.061-5.879 1.126-.643 2.209 3.279 2.495 3.182 2.426-.823 3.305-8.904 6.349-8.007 1.676.494.137 8.123-2.496 11.938-.292.424-.274 3.89-.274 3.89l-6.911-2.004z" class="colorFFCBC7 svgShape"/><path fill="#263182" d="M253.364 667.966c2.243-4.685 3-12.745-4.638-15.442-5.556-1.962-10.227-2.042-15.28 1.705-5.053 3.747-7.012 11.982-5.941 17.883 1.284 7.072-7.225 13.207-3.904 18.945 4.46 7.708 26.841 1.103 34.513-.041-5.027-8.059-9.942-12.207-4.75-23.05z" class="color263182 svgShape"/><path fill="#bbbaff" d="M250.691 701.739c8.852-3.04 25.114-17.349 29.169-24.101 1.859-4.372 8.179-28.082 9.781-34.134.219-.826-.237-1.672-1.047-1.978a31.273 31.273 0 0 0-5.556-1.538 1.703 1.703 0 0 0-1.904 1.076l-10.712 29.371c-4.127 2.623-29.554 13.498-32.002 22.054-1.961 6.848 3.571 12.238 12.271 9.25z" class="colorBBBAFF svgShape"/><path fill="#9896ff" d="M267.573 739.463a.992.992 0 0 1-.369.557c-6.603 4.996-21.177.461-30.39-.213-.838-.062-1.473-.78-1.414-1.601 1.41-19.627-13.645-39.902 5.329-54.984 2.852-.069 5.84-.924 8.562-.083 14.273 4.416 16.675 18.36 17.097 31.912.255 8.269-.226 16.392.801 22.115l.014.069a20.73 20.73 0 0 0 .372 1.688c.045.179.045.365-.002.54z" class="color9896FF svgShape"/><path fill="#7c7af0" d="M266.387 715.051c-.087 7.748.276 21.316.801 22.115-4.744-4.531-5.496-12.683-10.087-15.332-6.362-3.67-14.017-10.352-14.017-10.352l7.593.688 15.71 2.881z" class="color7C7AF0 svgShape"/><path fill="#ffcbc7" d="M240.316 685.036a45.197 45.197 0 0 1-1.06-.571c.56-2.581.957-8.127 1.088-11.499.033-.874.049-1.599.044-2.092 1.552 1.273 4.409 1.913 5.543 3.613 1.134 1.697 1.993 7.987 2.077 8.343 1.516 6.286-4.403 3.901-7.692 2.206z" class="colorFFCBC7 svgShape"/><path fill="#fabab4" d="M247.076 678.356s-3.103-.34-4.762-.415c-1.999-.09-1.991 5.539-1.998 7.095a45.197 45.197 0 0 1-1.06-.571c.56-2.581.957-8.127 1.088-11.499a3577.83 3577.83 0 0 1 6.732 5.39z" class="colorFABAB4 svgShape"/><path fill="#ffcbc7" d="M251.226 677.361c3.934-1.731 2.962-14.565-.305-18.646-3.336 4.18-9.28 4.091-14.07 2.604.401 1.056.24 4.522 1.066 5.863-.776-1.26-3.521-1.091-3.04 1.389.439 2.263 1.877 2.782 3.9 3.46 1.79 4.769 7.21 7.635 12.449 5.33z" class="colorFFCBC7 svgShape"/><path fill="#ffffff" d="M298.763 670.435a16.79 16.79 0 0 0-4.57-1.988 19.732 19.732 0 0 0-.726-.181c-2.526-.575-5.185-.632-7.917-.394a40.868 40.868 0 0 0-2.491.29c-.121.016-.243.033-.365.052a33.604 33.604 0 0 1-2.364-8.855c-.06-.465-.11-.935-.151-1.407l.354-.101c.132-.038.263-.077.394-.113l.387-.113a56.882 56.882 0 0 0 1.714-.529c2.466-.806 4.811-1.822 6.745-3.567.189-.171.374-.349.554-.533 1.125-1.149 2.087-2.584 2.823-4.423l5.613 21.862z" class="colorFFF svgShape"/><path fill="#d8daeb" d="m298.23 668.364-5.082-19.789a17.27 17.27 0 0 1-.254.597l5.336 19.192z" class="colorD8DAEB svgShape"/><path fill="#cfd2eb" d="M298.763 670.435c-4.334-2.722-9.275-3.039-14.45-2.435-.15.017-.3.036-.451.055l-.089.011c-.099.013-.2.026-.3.041-.071.008-.141.018-.211.028a12.39 12.39 0 0 0-.203.029c-.095.013-.192.025-.288.041-.026.003-.052.006-.078.011a32.57 32.57 0 0 1-.519-1.307c.063.146.124.291.189.435l.027-.005c.112-.021.224-.042.336-.059l.178-.034.233-.039a31.944 31.944 0 0 1 .386-.066l.417-.066c5.145-.792 10.078-.654 14.453 1.92l.37 1.44z" class="colorCFD2EB svgShape"/><path fill="#4e6fd9" d="M306.005 656.992c1.589 6.483-.515 12.542-4.7 13.533-4.185.991-8.865-3.462-10.455-9.946-1.589-6.483.515-12.542 4.7-13.533 4.185-.99 8.865 3.462 10.455 9.946z" class="color4E6FD9 svgShape"/><path fill="#ffffff" d="m273.81 660.298 2.117 8.638c-1.066.185-3.511 1.014-4.578.83-2.756-.2-4.773-3.159-3.859-5.766.699-2.726 3.975-3.186 6.32-3.702z" class="colorFFF svgShape"/><path fill="#cfd2eb" d="m275.781 668.339.146.597c-1.066.185-3.511 1.014-4.578.83-2.756-.2-4.773-3.159-3.859-5.766a4.42 4.42 0 0 1 .639-1.249c-1.328 2.573.622 6.009 3.522 6.266 1.06.214 3.081-.471 4.13-.678z" class="colorCFD2EB svgShape"/><path fill="#bdc3ff" d="M304.894 657.254c1.357 5.535-.286 10.67-3.67 11.471-1.243.295-2.549-.038-3.768-.85-.881-.585-1.716-1.418-2.455-2.447a13.482 13.482 0 0 1-.782-1.233 16.006 16.006 0 0 1-1.578-4.041 16.258 16.258 0 0 1-.475-3.962v-.023c.013-1.213.178-2.349.48-3.354.648-2.164 1.928-3.719 3.666-4.131 3.384-.8 7.226 3.037 8.582 8.57z" class="colorBDC3FF svgShape"/><path fill="#4e6fd9" d="M284.697 678.343a.349.349 0 0 1-.407-.214c-.71-1.907-1.877-2.894-2.676-4.447-.988-1.921-.897-4.702-3.028-6.236l-3.914.927 5.272 10.652a.353.353 0 0 1-.24.5.349.349 0 0 0-.262.42l.299 1.219a.354.354 0 0 0 .427.257l4.991-1.182a.349.349 0 0 0 .262-.42l-.299-1.219a.35.35 0 0 0-.425-.257z" class="color4E6FD9 svgShape"/><path fill="#505feb" d="M280.952 680.699a.354.354 0 0 1-.427-.257l-.299-1.219a.348.348 0 0 1 .261-.42.353.353 0 0 0 .24-.5l-5.034-10.171-1.019.241 5.272 10.652a.353.353 0 0 1-.24.5.349.349 0 0 0-.262.42l.299 1.219a.354.354 0 0 0 .427.257l4.991-1.182a.349.349 0 0 0 .262-.42l-.041-.169-4.43 1.049z" class="color505FEB svgShape"/><path fill="#a8aef0" d="M300.097 667.408c-.881-.584-1.716-1.418-2.455-2.446a13.348 13.348 0 0 1-.782-1.234 15.992 15.992 0 0 1-1.578-4.041 16.258 16.258 0 0 1-.475-3.962v-.023c.013-1.213.178-2.349.48-3.354.51-1.701 1.411-3.024 2.617-3.712a4.043 4.043 0 0 0-1.592.049c-1.738.411-3.017 1.967-3.666 4.131-.302 1.005-.468 2.14-.48 3.354v.023a16.193 16.193 0 0 0 .475 3.962c.365 1.488.91 2.855 1.578 4.041l.039.072c.234.409.482.797.743 1.161.738 1.029 1.573 1.862 2.455 2.447 1.219.812 2.525 1.144 3.768.85a3.956 3.956 0 0 0 1.05-.419c-.735-.121-1.471-.429-2.177-.899z" class="colorA8AEF0 svgShape"/><path fill="#4e6fd9" d="M272.589 659.927c-1.121.43-1.715 1.783-1.381 3.145l1.137 4.641c.334 1.362 1.49 2.3 2.687 2.182 1.919-.197 4.228-.347 6.098-.535 1.301-.131 2.195-1.289 1.794-2.343a34.055 34.055 0 0 1-2.036-8.644c-.084-.809-1.029-1.282-1.915-.959-2.198.799-4.249 1.678-6.384 2.513z" class="color4E6FD9 svgShape"/><path fill="#ffffff" d="m300.371 660.928-6.152 3.268a16.006 16.006 0 0 1-1.578-4.041 16.258 16.258 0 0 1-.475-3.962v-.023l7.156.633 1.049 4.125z" class="colorFFF svgShape"/><path fill="#e6e7f5" d="M296.036 662.354c-.806.428-1.817.085-2.169-.745a16.591 16.591 0 0 1-.839-2.535 16.445 16.445 0 0 1-.443-2.867l-.418-.037v.023a16.193 16.193 0 0 0 .475 3.962c.365 1.488.91 2.855 1.578 4.041l6.152-3.268-.196-.772-4.14 2.198z" class="colorE6E7F5 svgShape"/><path fill="#4e6fd9" d="M301.486 658.555c.292 1.192-.121 2.312-.922 2.501-.801.19-1.687-.623-1.98-1.814-.292-1.192.121-2.312.922-2.501.802-.19 1.688.622 1.98 1.814z" class="color4E6FD9 svgShape"/><path fill="#4a59db" d="M301.3 658.599c.255 1.039-.059 2.005-.701 2.157-.642.152-1.369-.567-1.623-1.607-.255-1.039.059-2.005.701-2.157.642-.152 1.368.567 1.623 1.607z" class="color4A59DB svgShape"/><path fill="#ffffff" d="M299.859 659.021c-.078-.32-.008-.61.157-.649.165-.039.362.188.441.508s.008.61-.157.649c-.166.039-.363-.188-.441-.508z" class="colorFFF svgShape"/><path fill="#505feb" d="M281.416 668.085c-1.87.188-4.179.338-6.098.535-1.197.119-2.353-.82-2.687-2.182l-1.137-4.641a3.168 3.168 0 0 1-.092-.747 2.988 2.988 0 0 0-.194 2.021l1.137 4.641c.334 1.362 1.49 2.3 2.687 2.182 1.919-.197 4.228-.347 6.098-.535 1.22-.123 2.083-1.15 1.854-2.147-.332.461-.895.805-1.568.873z" class="color505FEB svgShape"/><path fill="#ffffff" d="m276.418 661.669-2.682.635a.738.738 0 0 1-.888-.534.722.722 0 0 1 .543-.872l2.681-.635a.738.738 0 0 1 .889.534.722.722 0 0 1-.543.872z" class="colorFFF svgShape"/><path fill="#cfd2eb" d="m276.983 661.218-3.334.789a.402.402 0 0 1-.484-.291l-.157-.641a.419.419 0 0 1-.011-.078.39.39 0 0 0-.228.452l.157.641a.402.402 0 0 0 .484.291l3.334-.789a.396.396 0 0 0 .307-.398.391.391 0 0 1-.068.024z" class="colorCFD2EB svgShape"/><path fill="#ffffff" d="m274.356 663.815-.417.099a.55.55 0 0 1-.663-.399.54.54 0 0 1 .406-.652l.417-.099a.55.55 0 0 1 .663.399.54.54 0 0 1-.406.652z" class="colorFFF svgShape"/><path fill="#cfd2eb" d="m274.709 663.605-.951.225a.275.275 0 0 1-.332-.199l-.129-.525a.268.268 0 0 1-.002-.116.264.264 0 0 0-.084.263l.129.525a.275.275 0 0 0 .332.199l.951-.225a.273.273 0 0 0 .205-.21.279.279 0 0 1-.119.063z" class="colorCFD2EB svgShape"/><path fill="#ffffff" d="M275.839 662.908a.64.64 0 0 1 .482-.773.653.653 0 0 1 .787.473.64.64 0 0 1-.481.773.654.654 0 0 1-.788-.473z" class="colorFFF svgShape"/><path fill="#cfd2eb" d="M276.681 663.282a.653.653 0 0 1-.787-.473.622.622 0 0 1 .038-.405.629.629 0 0 0-.093.504.653.653 0 0 0 1.23.104.644.644 0 0 1-.388.27z" class="colorCFD2EB svgShape"/><path fill="#4a59db" d="M272.301 669.76a4.727 4.727 0 0 1-.951.006c-2.036-2.039-2.813-5.804-2.326-7.93.275-.21.576-.391.902-.536-.866 2.237.092 6.19 2.375 8.46z" class="color4A59DB svgShape"/><path fill="#ffcbc7" d="M277.316 682.22s.609-2.915.396-3.836c-.213-.921-1.805-3.87-.792-5.529 1.662-2.72 8.104-2.229 8.683.135.578 2.364-.699 4.851-1.707 6.238-.724.996-.788 4.608-.788 4.608l-5.792-1.616z" class="colorFFCBC7 svgShape"/><path fill="#bbbaff" d="M238.602 707.981c5.392 5.344 26.052 16.505 35.257 13.836 10.368-3.005 10.055-30.544 11.009-37.106a1.435 1.435 0 0 0-1.14-1.604l-6.349-1.334a1.461 1.461 0 0 0-1.711 1.017l-6.968 21.72s-15.479-11.354-23.76-14.302c-6.338-2.256-13.945 10.235-6.338 17.773z" class="colorBBBAFF svgShape"/><path fill="#fabab4" d="M250.334 659.38s.148 4.348-4.323 5.974c0 0 .88-1.641-1.142-3.324 0 0 .187 2.696-1.369 4.18-1.556 1.484-4.11 3.981-2.482 7.747l-1.219-1.191-.552-9.48 6.388-4.08 4.699.174z" class="colorFABAB4 svgShape"/><path fill="#263182" d="M253.238 664.532s-.461-3.545-2.904-5.152c0 0-1.071 3.959-4.421 5.243 0 0-.092-1.861-1.044-2.593 0 0-.585 2.931-3.476 5.152-2.701 2.074-.183 6.867.792 7.927 0 0-5.004-2.875-4.447-8.287 0 0-4.02-3.383-4.089-3.552-.069-.169.275-4.025.275-4.025s9.395-2.402 9.413-2.503c.018-.102 3.83-1.319 3.83-1.319l2.934.27 2.203.778.934 8.061z" class="color263182 svgShape"/><path fill="#263182" d="M243.802 652.552c-1.766-1.781-4.78-.744-6.849-.026-7.557 2.737-11.92 11.232-8.898 18.717.735 2.469 2.405 2.41.681 5.139-2.086 2.933-5.011 5.313-5.95 8.878-1.044 3.295.08 7.862 4.061 8.422-4.157-.344-5.521-5.101-4.51-8.537.713-2.984 2.836-5.4 4.786-7.689.807-.945 1.604-2.042 1.761-3.271-.199-.343-.533-.656-.716-1.028-3.554-6.663-1.284-15.425 5.388-19.267 2.818-1.594 7.434-3.864 10.246-1.338z" class="color263182 svgShape"/><path fill="#ff7ac6" d="M583.069 820.463h-1.449c-1.365 0-2.594.851-3.112 2.153l-22.718 57.119h53.108l-22.718-57.119c-.517-1.302-1.746-2.153-3.111-2.153z" class="colorFF7AC6 svgShape"/><path fill="#e657a8" d="M586.181 822.616c-.518-1.303-1.748-2.153-3.112-2.153h-1.449c-.609 0-1.186.177-1.69.48l11.165 28.072c5.201 13.077-4.433 27.276-18.506 27.276H557.16l-1.37 3.444h53.108l-22.717-57.119z" class="colorE657A8 svgShape"/><path fill="#ffffff" d="M606.111 872.737h-47.533l2.759-6.943h42.016zM600.51 858.651h-36.331l2.759-6.943h30.814zM594.909 844.557H569.78l2.767-6.944h19.595zM589.3 830.471h-13.91l2.758-6.944h8.393z" class="colorFFF svgShape"/><path fill="#ff7ac6" d="M616.997 889.431h-69.306c0-5.583 4.526-10.108 10.108-10.108h49.089c5.584-.001 10.109 4.525 10.109 10.108zM1079.182 820.463h-1.449c-1.365 0-2.594.851-3.112 2.153l-22.718 57.119h53.108l-22.718-57.119c-.517-1.302-1.746-2.153-3.111-2.153z" class="colorFF7AC6 svgShape"/><path fill="#e657a8" d="M1082.294 822.616c-.518-1.303-1.747-2.153-3.112-2.153h-1.449c-.609 0-1.186.177-1.69.48l11.165 28.072c5.201 13.077-4.433 27.276-18.506 27.276h-15.428l-1.37 3.444h53.108l-22.718-57.119z" class="colorE657A8 svgShape"/><path fill="#ffffff" d="M1102.225 872.737h-47.533l2.758-6.943h42.016zM1096.624 858.651h-36.331l2.758-6.943h30.814zM1091.023 844.557h-25.129l2.767-6.944h19.595zM1085.413 830.471h-13.91l2.759-6.944h8.393z" class="colorFFF svgShape"/><path fill="#ff7ac6" d="M1113.111 889.431h-69.306c0-5.583 4.526-10.108 10.108-10.108h49.089c5.583-.001 10.109 4.525 10.109 10.108z" class="colorFF7AC6 svgShape"/><path fill="#414c96" d="M693.18 861.986s-20.949 3.099-20.592 2.891c.358-.208 38.342 19.273 38.342 19.273l37.428-16.77-18.557-5.395H693.18z" class="color414C96 svgShape"/><path fill="#f7c1ce" d="m701.227 890.571-.314.004-.194.001c-5.33.061-8.81-.071-8.81-.071s-.256.057-.722.153c-4.557.945-29.127 5.626-27.033-3.632 1.835-8.129 16.576-7.119 22.488-6.373a48.645 48.645 0 0 1 2.442.363s2.933-1.261 7.562-3.057c.191-.075.387-.154.581-.229 15.248-5.918 47.319-17.136 55.62-10.394l-.001.004c.091.07.181.148.266.226.005-.004.013.003.016.012.088.083.172.17.255.256.073.07.144.15.209.237.027.024.052.057.078.09a5.269 5.269 0 0 1 .511.774c.073.135.136.272.194.413.135.304.237.63.313.972.075.347.137.687.178 1.022.077.601.107 1.183.08 1.752-.667 14.953-36.344 17.247-53.719 17.477z" class="colorF7C1CE svgShape"/><path fill="#323b7d" d="m701.503 892.314-.59-1.739-.256-.758c-.004-.005-.003-.009-.003-.009l-4.008-11.848-.576-1.699c15.263-5.924 48.328-15.968 56.772-8.938l.004.005c.094.075.184.154.267.24.005-.004.013.003.016.012.088.083.172.17.255.256.073.07.144.15.209.237.027.024.052.057.078.09a5.269 5.269 0 0 1 .511.774c.073.135.136.272.194.413.135.304.237.63.313.972.075.347.137.687.178 1.022.077.601.107 1.183.08 1.752-.614 15.137-36.059 18.989-53.444 19.218zM689.075 881.057s-27.794-5.431-29.005 6.319c-1.301 12.622 31.831 3.172 31.831 3.172s-12.778 2.796-12.171-4.37c.586-6.935 9.345-5.121 9.345-5.121z" class="color323B7D svgShape"/><path fill="#f7c1ce" d="M730.374 833.359c-5.454 7.66-.576 28.627-.576 28.627H693.18c1.012-1.435 3.863-19.506-2.559-29.468-10.363-16.071.802-28.565.802-28.565l15.229-2.769.972-4.848.667-3.339.156-.776h6.85l.249 1.456.536 3.174.793 4.682 13.999 3.039c.001-.001 11.99 11.239-.5 28.787z" class="colorF7C1CE svgShape"/><path fill="#ffbc47" d="M730.371 833.364c-5.456 7.659-.571 28.622-.571 28.622h-36.62c.861-1.221 3.054-14.516-.28-24.577-.581-1.762-1.332-3.414-2.283-4.895-10.361-16.068.801-28.562.801-28.562l15.237-2.773c.585 3.408 8.893 3.207 10.221.35l13.996 3.043c0 .001 11.993 11.233-.501 28.792z" class="colorFFBC47 svgShape"/><path fill="#c4626e" d="M693.18 861.986c.861-1.221 3.054-14.516-.28-24.577 7.221-2.098 6.002 17.945 18.03 24.577h-17.75z" class="colorC4626E svgShape"/><path fill="#f7c1ce" d="M750.288 849.296c-.38 2.372-2.052 4.946-4.525 7.488-6.327 6.497-19.213 6.207-28.052 8.569l-.923-4.71s15.78-4.451 19.175-9.987c.36-.591.611-1.141.711-1.632 1.151-5.516-5.236-12.414-5.236-12.414l-.679-32.025c-.002.002 21.451 32.647 19.529 44.711z" class="colorF7C1CE svgShape"/><path fill="#ffbc47" d="M750.498 849.294c-.41 2.232-1.748 5.036-3.976 7.481a.717.717 0 0 1-.916.114l-2.712-1.761-7.111-4.608a5.127 5.127 0 0 0 .645-1.674c1.151-5.515-9.081-14.047-9.081-14.047l2.459-30.41c3.296-.148 8.711 7.373 13.206 16.594l.013.035c4.866 9.974 8.642 21.924 7.473 28.276z" class="colorFFBC47 svgShape"/><path fill="#f7c1ce" d="m706.05 860.723.16 3.132c.283-.098.26-.509-.034-.57-7.878-1.628-20.825.624-27.129-4.729-3.884-3.304-6.005-7.371-6.506-10.504-1.922-12.064 19.003-44.075 19.003-44.075l-.773 31.984s-6.387 6.898-5.236 12.414c.2.981.981 2.193 2.112 3.514 4.725 5.546 18.403 8.834 18.403 8.834z" class="colorF7C1CE svgShape"/><path fill="#ffbc47" d="M685.532 848.374c.201.981 1.539 1.84 2.668 3.161l-6.605 5.493-2.655 2.206c-3.885-3.305-6.165-7.534-7.019-10.59-1.321-4.704.558-12.744 3.728-20.727.013-.044.022-.065.022-.065 4.783-12.046 12.478-23.94 16.497-24.036l2.32 32.455c0 .001-10.107 6.588-8.956 12.103z" class="colorFFBC47 svgShape"/><path fill="#f7c1ce" d="M757.851 885.992c2.205 9.412-22.853 4.85-27.503 3.925-.476-.094-.737-.15-.737-.15s-3.632.169-9.17.147h-.324c-8.041-.042-19.935-.481-30.593-2.383-13.075-2.329-24.297-6.847-24.277-15.508.001-.019.002-.033-.001-.047a9.91 9.91 0 0 1 .067-1.076c.002-.01.001-.014.001-.019.045-.376.108-.756.188-1.145a5.2 5.2 0 0 1 .311-.993 4.477 4.477 0 0 1 .441-.843s.005-.001.004-.005c.081-.126.172-.249.263-.367a.607.607 0 0 1 .078-.092c.065-.089.137-.171.211-.243.084-.089.168-.177.258-.262.002-.01.01-.017.016-.013 1.012-.943 2.428-1.58 4.166-1.967 11.953-2.659 39.085 6.643 52.838 11.85.199.074.399.153.594.228 4.729 1.791 7.727 3.05 7.727 3.05s.925-.178 2.426-.381c.018-.004.037-.003.059-.008 6.014-.809 21.015-1.961 22.957 6.302z" class="colorF7C1CE svgShape"/><path fill="#414c96" d="m725.254 875.294-.572 1.735-4.24 12.885-.586 1.776c-7.297-.034-17.722-.671-27.505-2.485l-.005-.004c-14.246-2.638-27.147-7.772-27.096-17.177.001-.019.002-.033-.001-.047.003-.353.028-.715.067-1.076.002-.01.001-.014.001-.019.045-.376.108-.756.188-1.145a5.2 5.2 0 0 1 .311-.993 4.477 4.477 0 0 1 .441-.843s.005-.001.004-.005c.081-.126.172-.249.263-.367a.607.607 0 0 1 .078-.092c.065-.089.137-.171.211-.243.084-.089.168-.177.258-.262.002-.01.01-.017.016-.013 1.045-1.007 2.537-1.707 4.371-2.148 12.289-3.001 40.069 5.329 53.796 10.523zM732.417 880.122s28.263-5.764 29.595 6.193c1.431 12.845-32.392 3.497-32.392 3.497s12.356 2.34 11.678-4.954c-.657-7.058-8.881-4.736-8.881-4.736z" class="color414C96 svgShape"/><path fill="#ffffff" d="M737.092 833.73v30.056a2.93 2.93 0 0 1-2.93 2.93h-46.053a2.93 2.93 0 0 1-2.93-2.93V833.73a2.93 2.93 0 0 1 2.93-2.93h46.053a2.93 2.93 0 0 1 2.93 2.93z" class="colorFFF svgShape"/><path fill="#d7e0fa" d="M706.55 848.758a4.586 4.586 0 1 1 9.171 0 4.586 4.586 0 0 1-9.171 0z" class="colorD7E0FA svgShape"/><path fill="#d7e0fa" d="M737.092 833.73v30.056a2.93 2.93 0 0 1-2.93 2.93h-46.053a2.93 2.93 0 0 1-2.93-2.93c46.577 2.138 51.913-4.693 48.983-32.987a2.932 2.932 0 0 1 2.93 2.931z" class="colorD7E0FA svgShape"/><path fill="#f5ae31" d="M750.498 849.294c-.41 2.232-1.748 5.036-3.976 7.481a.717.717 0 0 1-.916.114l-2.712-1.761c1.426-2.472 3.529-4.433 4.516-8.26 2.644-10.243-4.023-24.966-4.385-25.851 4.866 9.975 8.642 21.925 7.473 28.277z" class="colorF5AE31 svgShape"/><path fill="#1f1c80" d="M702.436 783.897s-5.487-5.88-1.036-13.691c0 0 1.345 2.436 2.94 1.763 0 0 .084-5.711 11.676-6.887 0 0-.84 2.268-.42 2.856 3.822-1.68 7.53 2.491 11.256.924 0 0 1.029 6.618-3.255 10.482 0 0 .65 2.285-.861 4.554-1.513 2.267-20.3-.001-20.3-.001z" class="color1F1C80 svgShape"/><path fill="#f7c1ce" d="M704.163 782.121s-2.504-2.448-2.739-.072c-.28 2.812 3.068 4.904 3.068 4.904s.816 8.695 8.152 8.695c7.277 0 8.494-8.728 8.494-8.728s3.827-1.044 3.015-4.349c-.385-1.569-2.38.034-2.38.034v-4.13s-2.04 1.037-5.978-.652c-2.851-1.224-3.867-2.923-6.304-2.827-2.776.111-5.437 3.158-5.328 7.125z" class="colorF7C1CE svgShape"/><path fill="#d5d8ed" d="M1146.086 894.694H211.932a2.068 2.068 0 0 1-2.068-2.068v-1.052c0-1.142.926-2.068 2.068-2.068h934.154c1.142 0 2.068.926 2.068 2.068v1.052a2.068 2.068 0 0 1-2.068 2.068zM974.546 926.36H638.261a2.068 2.068 0 0 1-2.068-2.068v-1.052c0-1.142.926-2.068 2.068-2.068h336.285c1.142 0 2.068.926 2.068 2.068v1.052a2.068 2.068 0 0 1-2.068 2.068zM184.242 894.694h-47.871a2.068 2.068 0 0 1-2.068-2.068v-1.052c0-1.142.926-2.068 2.068-2.068h47.871c1.142 0 2.068.926 2.068 2.068v1.052a2.068 2.068 0 0 1-2.068 2.068zM1227.629 894.694h-47.871a2.068 2.068 0 0 1-2.068-2.068v-1.052c0-1.142.926-2.068 2.068-2.068h47.871c1.142 0 2.068.926 2.068 2.068v1.052a2.069 2.069 0 0 1-2.068 2.068zM1041.738 926.36h-47.871a2.068 2.068 0 0 1-2.068-2.068v-1.052c0-1.142.926-2.068 2.068-2.068h47.871c1.142 0 2.068.926 2.068 2.068v1.052a2.069 2.069 0 0 1-2.068 2.068z" class="colorD5D8ED svgShape"/><path fill="#ffb86b" d="m1120.692 757.208 2.694-2.694a1.564 1.564 0 1 0-2.214-2.214l-2.694 2.694-2.694-2.694a1.564 1.564 0 1 0-2.214 2.214l2.694 2.694-2.689 2.689a1.564 1.564 0 0 0 1.107 2.673c.401 0 .802-.153 1.107-.459l2.689-2.689 2.689 2.689a1.561 1.561 0 0 0 2.214 0 1.564 1.564 0 0 0 0-2.214l-2.689-2.689zM828.302 219.296l2.694-2.694a1.564 1.564 0 1 0-2.214-2.214l-2.694 2.694-2.694-2.694a1.564 1.564 0 1 0-2.214 2.214l2.694 2.694-2.689 2.689a1.564 1.564 0 0 0 1.107 2.673c.401 0 .802-.153 1.107-.459l2.689-2.689 2.689 2.689c.306.306.706.459 1.107.459s.802-.153 1.107-.459a1.564 1.564 0 0 0 0-2.214l-2.689-2.689zM225.041 608.208l2.694-2.694a1.564 1.564 0 1 0-2.214-2.214l-2.694 2.694-2.694-2.694a1.564 1.564 0 1 0-2.214 2.214l2.694 2.694-2.689 2.689a1.564 1.564 0 0 0 1.107 2.673c.401 0 .802-.153 1.107-.459l2.689-2.689 2.689 2.689a1.56 1.56 0 0 0 1.107.459 1.564 1.564 0 0 0 1.107-2.673l-2.689-2.689z" class="colorFFB86B svgShape"/><path fill="#807eff" d="M1172.287 667.453a6.16 6.16 0 0 1-6.153-6.153c0-3.393 2.76-6.153 6.153-6.153s6.153 2.76 6.153 6.153a6.16 6.16 0 0 1-6.153 6.153zm0-10.38a4.231 4.231 0 0 0-4.227 4.227 4.231 4.231 0 0 0 4.227 4.227 4.231 4.231 0 0 0 4.227-4.227 4.23 4.23 0 0 0-4.227-4.227zM253.795 289.812a6.16 6.16 0 0 1-6.153-6.153 6.16 6.16 0 0 1 6.153-6.153 6.16 6.16 0 0 1 6.153 6.153 6.16 6.16 0 0 1-6.153 6.153zm0-10.381a4.232 4.232 0 0 0-4.227 4.228 4.232 4.232 0 0 0 4.227 4.227 4.232 4.232 0 0 0 4.227-4.227 4.232 4.232 0 0 0-4.227-4.228z" class="color807EFF svgShape"/><path fill="#ff7ac6" d="M1177.393 474.751c.28.453.37.998.238 1.535a1.999 1.999 0 0 1-1.396 1.459l-6.765 1.973a1.998 1.998 0 0 1-1.961-.48 1.998 1.998 0 0 1-.565-1.938l1.674-6.845a1.997 1.997 0 0 1 1.396-1.459 1.998 1.998 0 0 1 1.961.48l5.091 4.872c.127.123.237.258.327.403zm-8.854 3.25c.025.04.052.069.071.087a.418.418 0 0 0 .415.101l6.765-1.973a.417.417 0 0 0 .295-.309.42.42 0 0 0-.12-.41l-5.091-4.872a.419.419 0 0 0-.415-.101.422.422 0 0 0-.296.308l-1.674 6.845a.42.42 0 0 0 .05.324zM551.909 184.498c.28.453.37.998.238 1.535a1.999 1.999 0 0 1-1.396 1.459l-6.765 1.973a1.998 1.998 0 0 1-1.961-.48 2 2 0 0 1-.565-1.938l1.674-6.845a1.997 1.997 0 0 1 1.396-1.459 1.998 1.998 0 0 1 1.961.48l5.091 4.872c.128.123.237.258.327.403zm-8.854 3.251a.419.419 0 0 0 .485.188l6.765-1.973a.417.417 0 0 0 .295-.309.42.42 0 0 0-.12-.41l-5.091-4.872a.419.419 0 0 0-.415-.101.422.422 0 0 0-.296.308l-1.674 6.845a.425.425 0 0 0 .051.324z" class="colorFF7AC6 svgShape"/></svg>